<?xml version="1.0" encoding="UTF-8"?>
<svg version="1.1" xmlns="http://www.w3.org/2000/svg" width="909" height="274">
<path d="M0 0 C1.69711372 -0.00856522 1.69711372 -0.00856522 3.42851257 -0.01730347 C4.65522675 -0.01842133 5.88194092 -0.01953918 7.14582825 -0.02069092 C8.44886398 -0.02565582 9.75189972 -0.03062073 11.09442139 -0.03573608 C14.65613692 -0.04880161 18.21783366 -0.05529234 21.77956939 -0.05974674 C24.00516177 -0.06268402 26.23074907 -0.06678982 28.45633888 -0.07125092 C35.42151908 -0.08490396 42.38668761 -0.09458406 49.35188025 -0.09845281 C57.39056587 -0.1029429 65.42908225 -0.12054379 73.4677164 -0.1494534 C79.68609536 -0.17104143 85.90442656 -0.18115537 92.12284261 -0.18249393 C95.83577802 -0.18354307 99.54855386 -0.1894751 103.26144981 -0.20731354 C107.39619193 -0.22679592 111.53057667 -0.22251688 115.6653595 -0.21600342 C116.89814636 -0.2252182 118.13093323 -0.23443298 119.40107727 -0.243927 C120.52402695 -0.23835785 121.64697662 -0.2327887 122.80395508 -0.22705078 C123.78155887 -0.22851734 124.75916265 -0.2299839 125.7663908 -0.2314949 C128.62718648 0.20367351 129.51084937 0.84020707 131.21150208 3.14044189 C133.54621267 13.20999521 133.66037645 26.36863116 130.21150208 36.14044189 C127.12587946 37.6832532 123.8907885 37.23168738 120.50813293 37.18707275 C118.85912315 37.17429475 117.21011072 37.16185454 115.56109619 37.14970398 C114.6842108 37.1417877 113.8073254 37.13387142 112.90386772 37.12571526 C107.28535069 37.08363159 101.66662464 37.09544352 96.04798031 37.09560299 C91.11213143 37.09260921 86.17754737 37.07200722 81.24201965 37.01373291 C76.46692243 36.95840178 71.69394575 36.95215092 66.91862679 36.97842598 C65.1034099 36.97965696 63.28808808 36.96327229 61.47320366 36.92851067 C51.20688176 36.51536277 51.20688176 36.51536277 42.03794861 40.37411499 C37.80474915 44.64171548 37.80474915 44.64171548 36.21150208 50.14044189 C37.27599075 50.15257217 37.27599075 50.15257217 38.36198425 50.16494751 C45.04264545 50.24281693 51.72310957 50.33008401 58.40350914 50.42796898 C61.83816344 50.47796228 65.27278652 50.52429167 68.70759583 50.56231689 C72.65438896 50.60616929 76.60086573 50.66583338 80.54743958 50.72637939 C81.78392242 50.7379306 83.02040527 50.74948181 84.2943573 50.76138306 C85.4353891 50.78125275 86.5764209 50.80112244 87.75202942 50.82159424 C88.76018707 50.83491791 89.76834473 50.84824158 90.80705261 50.86196899 C93.21150208 51.14044189 93.21150208 51.14044189 95.21150208 53.14044189 C96.60366948 58.37171694 96.39545259 63.64152874 96.39900208 69.01544189 C96.41124817 69.98352783 96.42349426 70.95161377 96.43611145 71.94903564 C96.43804504 72.89649658 96.43997864 73.84395752 96.44197083 74.82012939 C96.44607971 75.67332764 96.4501886 76.52652588 96.454422 77.40557861 C96.15178448 80.81275997 95.22548716 83.88172441 94.21150208 87.14044189 C90.60425032 87.261133 86.99694061 87.37944579 83.38948059 87.49371338 C80.34540565 87.59023233 77.30175911 87.69504308 74.25813293 87.80474854 C61.44804617 88.24448818 61.44804617 88.24448818 55.36384583 87.85528564 C47.29443089 87.21801458 47.29443089 87.21801458 39.91853333 90.25762939 C37.28788867 92.76127741 35.13870127 95.06563915 33.21150208 98.14044189 C33.21150208 99.13044189 33.21150208 100.12044189 33.21150208 101.14044189 C43.67317975 102.0156017 54.02808167 102.24849775 64.52143097 102.15447617 C67.13624277 102.13206926 69.75097843 102.11824674 72.36585999 102.10678101 C79.78716732 102.07351192 87.2083445 102.03105503 94.62947083 101.96905518 C99.19843984 101.93148356 103.76728737 101.90841918 108.33638763 101.89474869 C110.06999908 101.88669725 111.80359402 101.8730923 113.537117 101.85381699 C115.94663852 101.82743377 118.35556539 101.81945529 120.76521301 101.81573486 C121.47892059 101.80337799 122.19262817 101.79102112 122.92796326 101.77828979 C125.80412773 101.79004241 127.74197132 101.81469632 130.14491272 103.48178101 C132.89525744 107.75886214 132.04978608 114.22035535 132.21150208 119.14044189 C132.29077942 121.05083252 132.29077942 121.05083252 132.37165833 122.99981689 C132.63132402 133.70255927 132.63132402 133.70255927 129.21150208 138.14044189 C126.81118774 138.80482483 126.81118774 138.80482483 123.8631134 138.85845947 C122.7158226 138.88921066 121.5685318 138.91996185 120.38647461 138.9516449 C118.45328117 138.96195488 118.45328117 138.96195488 116.48103333 138.97247314 C115.08263881 138.99611025 113.68426715 139.02113153 112.28591919 139.04737854 C107.2610952 139.12668151 102.23687614 139.13718176 97.21150208 139.14044189 C96.22651482 139.14160759 95.24152756 139.14277328 94.2266922 139.1439743 C79.23256442 139.15488703 64.24019404 139.04813156 49.24690247 138.89849854 C43.0490291 138.83687959 36.85113793 138.79044937 30.65310955 138.74766827 C25.84652625 138.71245087 21.040058 138.66822188 16.23357582 138.62131691 C13.94459969 138.60030082 11.65559284 138.58238986 9.36656761 138.56766319 C6.1997145 138.54620302 3.03323357 138.51232935 -0.13346863 138.47515869 C-1.07293839 138.47142746 -2.01240814 138.46769623 -2.98034668 138.46385193 C-4.26763672 138.44493896 -4.26763672 138.44493896 -5.58093262 138.42564392 C-6.32565984 138.41881434 -7.07038706 138.41198477 -7.83768177 138.40494823 C-9.78849792 138.14044189 -9.78849792 138.14044189 -12.78849792 136.14044189 C-14.21322909 130.01078454 -14.00697194 123.65623116 -14.03849792 117.39044189 C-14.05912292 116.35016846 -14.07974792 115.30989502 -14.10099792 114.23809814 C-14.1087323 112.74343018 -14.1087323 112.74343018 -14.11662292 111.21856689 C-14.12596863 110.31525635 -14.13531433 109.4119458 -14.14494324 108.48126221 C-13.71681778 105.66970953 -12.97299953 104.88990007 -10.78849792 103.14044189 C-10.10787292 102.58356689 -9.42724792 102.02669189 -8.72599792 101.45294189 C-6.78849792 100.14044189 -6.78849792 100.14044189 -4.78849792 100.14044189 C-4.78849792 99.48044189 -4.78849792 98.82044189 -4.78849792 98.14044189 C-4.12849792 98.14044189 -3.46849792 98.14044189 -2.78849792 98.14044189 C-2.78849792 97.48044189 -2.78849792 96.82044189 -2.78849792 96.14044189 C-2.12849792 96.14044189 -1.46849792 96.14044189 -0.78849792 96.14044189 C-0.52037292 95.56294189 -0.25224792 94.98544189 0.02400208 94.39044189 C1.22951011 92.10632141 2.6428573 90.18612659 4.21150208 88.14044189 C2.62208801 88.06696533 2.62208801 88.06696533 1.00056458 87.99200439 C-0.3874829 87.9169748 -1.77550243 87.84142705 -3.16349792 87.76544189 C-3.8621698 87.73450439 -4.56084167 87.70356689 -5.28068542 87.67169189 C-10.56193542 87.36700439 -10.56193542 87.36700439 -12.78849792 85.14044189 C-14.1544946 78.78029177 -13.97212047 72.30716949 -13.97599792 65.82794189 C-13.99436707 64.18342041 -13.99436707 64.18342041 -14.0131073 62.50567627 C-14.01504089 61.46089111 -14.01697449 60.41610596 -14.01896667 59.33966064 C-14.02307556 58.38921875 -14.02718445 57.43877686 -14.03141785 56.45953369 C-13.78849792 54.14044189 -13.78849792 54.14044189 -11.78849792 52.14044189 C-10.36582429 51.65690056 -8.92520329 51.2249511 -7.47599792 50.82794189 C-0.19986696 48.48418817 2.78572885 43.61134687 6.21150208 37.14044189 C5.17509583 37.16364502 4.13868958 37.18684814 3.07087708 37.21075439 C1.70109263 37.22951856 0.33130037 37.24771807 -1.03849792 37.26544189 C-1.72041199 37.28219971 -2.40232605 37.29895752 -3.10490417 37.31622314 C-10.19753997 37.38508369 -10.19753997 37.38508369 -12.78849792 35.14044189 C-14.13150708 28.94386788 -13.97239483 22.76196603 -13.97599792 16.45294189 C-13.98824402 15.31276611 -14.00049011 14.17259033 -14.0131073 12.99786377 C-14.01504089 11.90667236 -14.01697449 10.81548096 -14.01896667 9.69122314 C-14.02513 8.20102661 -14.02513 8.20102661 -14.03141785 6.6807251 C-13.78849792 4.14044189 -13.78849792 4.14044189 -11.78849792 1.14044189 C-7.85612134 0.1745423 -4.03609885 0.01226689 0 0 Z M-2.78849792 11.14044189 C-2.78849792 16.09044189 -2.78849792 21.04044189 -2.78849792 26.14044189 C4.75098732 26.91627588 12.14974544 27.28507789 19.72566223 27.26983643 C20.81806213 27.27158875 21.91046204 27.27334106 23.03596497 27.27514648 C26.60751483 27.27950965 30.1790143 27.27664873 33.75056458 27.27325439 C36.24351511 27.27392854 38.73646558 27.27489949 41.22941589 27.27615356 C46.43227266 27.2776226 51.63511217 27.27549973 56.83796692 27.27081299 C62.85654539 27.26565663 68.87508221 27.26715668 74.89365923 27.27263939 C80.6959647 27.27771339 86.4982573 27.27719127 92.30056381 27.27425766 C94.7670581 27.27358886 97.23355325 27.27441517 99.70004654 27.27673721 C103.13048385 27.27926065 106.56085489 27.27542889 109.99128723 27.26983643 C111.01769318 27.27186066 112.04409912 27.27388489 113.10160828 27.27597046 C114.02947144 27.27315063 114.95733459 27.27033081 115.91331482 27.26742554 C116.72403254 27.26704851 117.53475025 27.26667149 118.37003517 27.26628304 C120.22913078 27.34189719 120.22913078 27.34189719 121.21150208 26.14044189 C121.28469829 23.44389336 121.30392745 20.77352732 121.27400208 18.07794189 C121.26949036 17.31932861 121.26497864 16.56071533 121.2603302 15.77911377 C121.24850888 13.89952318 121.23057285 12.01997291 121.21150208 10.14044189 C105.33922153 10.11710375 89.46694561 10.09945821 73.59465218 10.08862972 C66.22523043 10.08346872 58.85581933 10.07642972 51.48640442 10.06500244 C45.06483607 10.05504965 38.64327544 10.04858704 32.2216996 10.0463534 C28.82007828 10.04504731 25.41847903 10.04196783 22.01686478 10.03471184 C18.22382018 10.02749708 14.43082191 10.02645114 10.63777161 10.0269165 C9.50417206 10.02332123 8.37057251 10.01972595 7.20262146 10.01602173 C6.17334534 10.01739639 5.14406921 10.01877106 4.08360291 10.02018738 C3.18577654 10.01926558 2.28795017 10.01834379 1.36291695 10.01739407 C-0.83932976 10.00110297 -0.83932976 10.00110297 -2.78849792 11.14044189 Z M-2.78849792 62.14044189 C-2.86163359 64.67093591 -2.88097319 67.17349026 -2.85099792 69.70294189 C-2.84648621 70.41385986 -2.84197449 71.12477783 -2.83732605 71.85723877 C-2.82550656 73.61834203 -2.80757056 75.37940225 -2.78849792 77.14044189 C6.91341032 77.27177417 16.61532988 77.40222811 26.31726456 77.53159332 C30.82335736 77.59170429 35.32944587 77.65210581 39.83552551 77.7131958 C44.19272198 77.77225625 48.54992846 77.83052154 52.90714264 77.88825989 C54.56071596 77.91030679 56.21428563 77.93262926 57.86785126 77.95524597 C66.982983 78.07972563 76.09523412 78.17550767 85.21150208 78.14044189 C86.76048193 75.04248219 86.04389746 71.87827638 85.77400208 68.51544189 C85.72179504 67.80903564 85.66958801 67.10262939 85.61579895 66.37481689 C85.48609001 64.62964203 85.34945254 62.88498464 85.21150208 61.14044189 C73.88538577 61.11731935 62.55927505 61.09952726 51.23313999 61.08862972 C45.97453544 61.0834007 40.71594698 61.07630271 35.45735168 61.06500244 C30.38697081 61.05417424 25.31660545 61.0481652 20.24621391 61.04556465 C18.30723259 61.04371028 16.36825217 61.04008944 14.42927742 61.03471184 C11.72328448 61.02750229 9.01735652 61.02645092 6.31135559 61.0269165 C5.50143661 61.02332123 4.69151764 61.01972595 3.85705566 61.01602173 C0.23644345 60.68053488 0.23644345 60.68053488 -2.78849792 62.14044189 Z M-2.78849792 112.14044189 C-2.78849792 117.42044189 -2.78849792 122.70044189 -2.78849792 128.14044189 C1.22993869 128.81018133 4.40978386 129.26568204 8.36807251 129.26742554 C9.35933136 129.27024536 10.35059021 129.27306519 11.37188721 129.27597046 C12.97822777 129.27293411 12.97822777 129.27293411 14.61701965 129.26983643 C16.32767609 129.2724649 16.32767609 129.2724649 18.07289124 129.27514648 C21.83395417 129.27954008 25.59496993 129.27663673 29.35603333 129.27325439 C31.96823129 129.27392792 34.5804292 129.27489834 37.19262695 129.27615356 C42.66075654 129.27796975 48.12887259 129.27558204 53.59700012 129.27081299 C59.92505116 129.26535781 66.25307004 129.26714431 72.58112031 129.27263939 C78.66907162 129.27771478 84.75700863 129.2771901 90.84496117 129.27425766 C93.43705436 129.27358846 96.02914837 129.27441657 98.62124062 129.27673721 C102.23183534 129.27926135 105.84236714 129.27542717 109.45295715 129.26983643 C110.53397202 129.27186066 111.61498688 129.27388489 112.72875977 129.27597046 C113.70591949 129.27315063 114.68307922 129.27033081 115.68984985 129.26742554 C116.54393338 129.26704851 117.39801691 129.26667149 118.27798176 129.26628304 C120.21835705 129.35348351 120.21835705 129.35348351 121.21150208 128.14044189 C121.21150208 122.86044189 121.21150208 117.58044189 121.21150208 112.14044189 C80.29150208 112.14044189 39.37150208 112.14044189 -2.78849792 112.14044189 Z " fill="#0EF69C" transform="translate(31.788497924804688,63.85955810546875)"/>
<path d="M0 0 C5.28 0 10.56 0 16 0 C18.17258 2.17258 17.26273946 7.26198008 17.31640625 10.28125 C17.33727798 11.28159271 17.35814972 12.28193542 17.37965393 13.31259155 C17.44722512 16.70830462 17.50562526 20.10409167 17.5625 23.5 C17.58334656 24.66952209 17.60419312 25.83904419 17.62567139 27.04400635 C18.03172888 50.39681525 18.10918952 73.75019909 18.12293625 97.10610962 C18.1250062 99.88332398 18.12877136 102.66053205 18.13284302 105.43774414 C18.13868794 109.83939355 18.13885503 114.24100752 18.13438225 118.64265823 C18.1333407 120.28454186 18.13391135 121.92642734 18.13614082 123.56830978 C18.13867198 125.82015246 18.13492698 128.07189523 18.12939453 130.32373047 C18.12859894 131.59457489 18.12780334 132.86541931 18.12698364 134.17477417 C18 137 18 137 17 138 C14.13732433 138.07325168 11.299281 138.09238205 8.4375 138.0625 C7.63119141 138.05798828 6.82488281 138.05347656 5.99414062 138.04882812 C3.99606244 138.03700518 1.99802217 138.01906914 0 138 C-0.33 132.72 -0.66 127.44 -1 122 C-2.32 123.546875 -3.64 125.09375 -5 126.6875 C-12.85334376 135.34819685 -20.90211484 139.3677587 -32.65234375 140.28515625 C-46.34368901 140.60485264 -60.00727941 137.37963738 -70.34375 127.84765625 C-82.60683723 114.16737261 -84.83851714 98.06637115 -84.18359375 80.44238281 C-83.3239915 69.00692944 -77.51052674 56.77593391 -69 49 C-62.812089 44.36147263 -56.53035997 40.84706943 -49 39 C-48.25621094 38.81695312 -47.51242188 38.63390625 -46.74609375 38.4453125 C-33.44930884 36.28907711 -19.22153355 37.41602837 -8.03515625 45.3046875 C-5.54780708 47.37668278 -3.28911231 49.71088769 -1 52 C-0.67 34.84 -0.34 17.68 0 0 Z M-59 64 C-65.27602732 71.64783657 -67.6569075 81.7211588 -67.28125 91.50390625 C-66.12585891 101.75800215 -62.39581028 111.79890643 -54.1875 118.4375 C-45.29366086 124.36113248 -35.6890612 125.39702661 -25.2265625 123.49609375 C-15.72586248 120.93821297 -9.14432339 116.42382955 -4 108 C1.25634363 98.22648607 1.67192984 85.17438085 -1.125 74.5625 C-4.44677404 65.2615327 -10.33853623 60.25205318 -18.984375 56.03125 C-32.28532794 50.63086309 -49.30270132 53.08419259 -59 64 Z M0 117 C1 119 1 119 1 119 Z " fill="#FBFDFD" transform="translate(253,64)"/>
<path d="M0 0 C7.46514187 6.20447222 11.19677517 12.85059543 13.546875 22.2109375 C13.78738403 25.67222595 13.78738403 25.67222595 13.77392578 29.33959961 C13.77421783 30.01361816 13.77450989 30.68763672 13.77481079 31.38208008 C13.77343033 33.58428345 13.75793068 35.78613783 13.7421875 37.98828125 C13.73845279 39.52527176 13.73560798 41.06226467 13.73361206 42.59925842 C13.72601165 46.62536302 13.70639444 50.65132107 13.6842041 54.67736816 C13.66366788 58.79335549 13.65459378 62.90936672 13.64453125 67.02539062 C13.62314478 75.087314 13.58799235 83.14909058 13.546875 91.2109375 C7.936875 91.2109375 2.326875 91.2109375 -3.453125 91.2109375 C-3.783125 86.9209375 -4.113125 82.6309375 -4.453125 78.2109375 C-5.0925 78.9121875 -5.731875 79.6134375 -6.390625 80.3359375 C-16.99991087 90.85556743 -29.40517608 93.46751924 -43.90991211 93.4597168 C-54.35332035 93.30357678 -63.23378284 90.72320827 -71.13671875 83.71875 C-76.40749446 78.22452495 -79.54068924 70.70845125 -79.890625 63.0859375 C-78.98880048 55.09834886 -76.72462688 48.51657517 -70.453125 43.2109375 C-60.78013921 36.81319076 -49.86733252 35.93800044 -38.53515625 35.796875 C-37.55189865 35.77750885 -36.56864105 35.7581427 -35.55558777 35.7381897 C-32.45901779 35.67909173 -29.36240921 35.63229149 -26.265625 35.5859375 C-24.14777152 35.5476933 -22.02993253 35.50863799 -19.91210938 35.46875 C-14.75923421 35.3734489 -9.60628648 35.28916507 -4.453125 35.2109375 C-4.5796022 33.13754083 -4.71555271 31.06472067 -4.85546875 28.9921875 C-4.93015381 27.83783203 -5.00483887 26.68347656 -5.08178711 25.49414062 C-5.68347028 20.17432785 -7.12619458 16.2641114 -11.1796875 12.6875 C-20.164356 6.49487988 -31.16782853 6.08061271 -41.67578125 7.7109375 C-47.83566126 9.05435619 -52.23285903 10.43537338 -56.453125 15.2109375 C-58.55000361 19.70424881 -58.94761759 24.32436582 -59.453125 29.2109375 C-62.09863556 29.40480242 -64.74430283 29.59132017 -67.390625 29.7734375 C-68.52274414 29.85754883 -68.52274414 29.85754883 -69.67773438 29.94335938 C-71.60058458 30.07269907 -73.52702048 30.14610662 -75.453125 30.2109375 C-77.1161099 28.5479526 -76.70408051 26.62280135 -76.765625 24.3359375 C-76.68567326 16.65057649 -74.45904046 10.33780571 -70.328125 3.8984375 C-52.39702089 -12.86324677 -19.79341091 -14.43532197 0 0 Z M-58.578125 53.0859375 C-62.04177866 57.01141165 -62.94411106 59.80170069 -62.75390625 65.1875 C-62.22121822 68.77103765 -60.90548658 70.57913482 -58.453125 73.2109375 C-49.15735702 79.13675293 -37.99821786 78.94344305 -27.453125 77.2109375 C-18.99995653 75.14561062 -12.18451329 71.5259964 -7.109375 64.296875 C-5.12337117 60.73625384 -4.23986003 57.50602728 -3.85546875 53.453125 C-3.73739868 52.25598877 -3.73739868 52.25598877 -3.61694336 51.03466797 C-3.5628833 50.43283691 -3.50882324 49.83100586 -3.453125 49.2109375 C-8.92999995 49.16100807 -14.40673854 49.1249706 -19.88378906 49.10107422 C-21.7418855 49.09109829 -23.59996658 49.07751272 -25.45800781 49.06005859 C-42.62628787 48.19370928 -42.62628787 48.19370928 -58.578125 53.0859375 Z M-4.453125 75.2109375 C-3.453125 77.2109375 -3.453125 77.2109375 -3.453125 77.2109375 Z " fill="#FBFDFD" transform="translate(574.453125,110.7890625)"/>
<path d="M0 0 C10.67339914 8.41750721 14.60930506 18.73129473 16.4765625 31.953125 C16.73384888 36.63481821 16.83273148 41.27498242 16.4765625 45.953125 C14.81491043 47.61477707 12.8114022 47.07272225 10.59254456 47.07754517 C9.89483444 47.07394989 9.19712433 47.07035461 8.47827148 47.06665039 C7.38077576 47.06686943 7.38077576 47.06686943 6.2611084 47.0670929 C3.83159466 47.06639367 1.40215667 47.05860085 -1.02734375 47.05078125 C-2.70743264 47.0489171 -4.38752207 47.04749319 -6.06761169 47.04649353 C-10.49817393 47.04266807 -14.9287036 47.03283756 -19.35925293 47.02178955 C-23.87686726 47.01157603 -28.39448684 47.00699604 -32.91210938 47.00195312 C-41.78256643 46.99121531 -50.65299926 46.97413856 -59.5234375 46.953125 C-59.07244776 48.84228354 -58.61555009 50.73003219 -58.15625 52.6171875 C-57.90246582 53.6685791 -57.64868164 54.7199707 -57.38720703 55.80322266 C-55.18837854 63.82167523 -52.28682649 69.49234339 -44.98046875 73.76953125 C-35.06833855 78.54437298 -25.01203566 79.51142384 -14.5234375 75.953125 C-8.1832701 73.13146492 -4.43791737 69.23826419 -1.5234375 62.953125 C-0.67176863 60.14572373 -0.67176863 60.14572373 -0.5234375 57.953125 C3.14643471 56.72983426 5.81624072 57.07291494 9.6640625 57.390625 C11.57251953 57.54337891 11.57251953 57.54337891 13.51953125 57.69921875 C14.98326172 57.82490234 14.98326172 57.82490234 16.4765625 57.953125 C16.05262419 68.29721982 13.07133305 75.15643213 6.0078125 82.7734375 C-5.81802163 92.95679467 -20.42981074 94.9284055 -35.5234375 93.953125 C-46.72656898 92.45011187 -57.51404422 88.14454995 -65.5234375 79.953125 C-76.51420615 65.2584189 -79.65070759 48.8382037 -77.23925781 30.83105469 C-75.05269089 19.32373332 -68.83899764 8.19856066 -59.5234375 0.953125 C-41.53908758 -10.76856994 -18.16899617 -12.46173224 0 0 Z M-51.5234375 15.953125 C-56.27119284 22.12831005 -57.52308266 25.95028627 -58.5234375 33.953125 C-39.3834375 33.953125 -20.2434375 33.953125 -0.5234375 33.953125 C-0.5234375 25.42766911 -0.71036831 21.56127828 -5.5234375 14.953125 C-12.72787179 8.19461314 -21.35742268 6.45340058 -30.98046875 6.70703125 C-38.9611678 7.47935696 -45.86759769 10.17617513 -51.5234375 15.953125 Z " fill="#FBFDFD" transform="translate(740.5234375,110.046875)"/>
<path d="M0 0 C5.94 0 11.88 0 18 0 C18.01458252 1.86132568 18.02916504 3.72265137 18.04418945 5.64038086 C18.09602455 11.81915972 18.16135896 17.99768309 18.23571491 24.17623043 C18.28027058 27.91897834 18.31955825 31.6616211 18.34643555 35.40454102 C18.37261767 39.02279425 18.41312244 42.6406396 18.46318626 46.25863838 C18.47975501 47.63273573 18.49133108 49.00690347 18.49761391 50.38108635 C18.54440325 59.68180856 19.03162153 67.3728218 24.125 75.3125 C31.3702039 82.0851906 40.20997184 83.3288087 49.8046875 83.2109375 C59.80547806 82.55073861 67.40799928 79.19437344 74.0546875 71.67578125 C76.08613871 68.88151603 77.38434659 66.25666468 78.6875 63.0625 C79.10386719 62.06347656 79.52023437 61.06445312 79.94921875 60.03515625 C82.30642742 53.22641597 82.20656908 46.38594395 82.31640625 39.2578125 C82.3475779 37.57254959 82.3475779 37.57254959 82.37937927 35.85324097 C82.44457224 32.27722068 82.50361884 28.70112923 82.5625 25.125 C82.605714 22.69530525 82.6493292 20.2656176 82.69335938 17.8359375 C82.80022254 11.89069943 82.90204427 5.94539114 83 0 C85.81256281 -0.02684312 88.62487241 -0.04676188 91.4375 -0.0625 C92.23994141 -0.07087891 93.04238281 -0.07925781 93.86914062 -0.08789062 C95.91295221 -0.0965143 97.95683902 -0.0522815 100 0 C104.27689592 4.27689592 102.13341359 18.16023614 102.13894653 23.89035034 C102.13715587 25.38262972 102.1351047 26.87490881 102.1328125 28.3671875 C102.13348816 29.93458064 102.13446036 31.50197367 102.13571167 33.06936646 C102.13717718 36.33873502 102.13507183 39.60807607 102.13037109 42.87744141 C102.12468404 47.03142434 102.12795369 51.18534249 102.13394356 55.33932304 C102.13758845 58.57215853 102.13639255 61.80497912 102.13381577 65.03781509 C102.13315682 66.56775038 102.13393804 68.09768709 102.13629532 69.6276207 C102.15868371 88.24062336 102.15868371 88.24062336 101 97 C100 98 100 98 96.18359375 98.09765625 C94.60152953 98.09191138 93.01948969 98.07889593 91.4375 98.0625 C88.653125 98.041875 85.86875 98.02125 83 98 C82.505 89.09 82.505 89.09 82 80 C81.01 81.36125 80.02 82.7225 79 84.125 C71.46870057 93.71987547 62.08744927 98.40555003 50 100 C36.36004882 100.80416946 24.10217522 99.50461256 13 91 C4.10879523 82.91088088 0.4340135 72.46995586 -0.17218018 60.63983154 C-0.23040451 56.76665024 -0.2255745 52.89665168 -0.1953125 49.0234375 C-0.19157374 47.60283611 -0.18873086 46.18223211 -0.18673706 44.7616272 C-0.17916839 41.05613858 -0.1595797 37.35081139 -0.1373291 33.64538574 C-0.11672327 29.85085228 -0.10770411 26.05629226 -0.09765625 22.26171875 C-0.07632603 14.84106437 -0.04120077 7.42057554 0 0 Z M83 76 C84 78 84 78 84 78 Z " fill="#FBFDFD" transform="translate(286,104)"/>
<path d="M0 0 C0.7849585 0.00491455 1.56991699 0.0098291 2.37866211 0.01489258 C14.71078349 0.26125706 25.29996255 3.54418225 34.5 11.9375 C42.39212352 20.26982165 45.25 31.1187817 45.25 42.3125 C39.97 42.3125 34.69 42.3125 29.25 42.3125 C28.59 40.0025 27.93 37.6925 27.25 35.3125 C24.50468997 27.71194735 21.34398049 22.55002681 13.8125 19 C5.66966968 16.02683543 -3.19398336 16.01351909 -11.3125 19.0625 C-18.23467369 22.3199935 -22.47256591 26.40848936 -25.75 33.3125 C-30.18124917 45.97068986 -30.31605108 59.66831735 -24.49609375 71.9609375 C-20.47070363 78.5638935 -15.51681781 81.81998728 -8.4375 84.625 C1.63058811 86.50210117 10.5856673 85.35445645 19.625 80.5 C26.290562 74.945365 27.43261129 68.49074922 29.25 60.3125 C34.53 60.3125 39.81 60.3125 45.25 60.3125 C45.77568643 71.17668615 43.2315522 79.85232212 36.25 88.3125 C30.66500194 94.33616649 25.09746102 97.93448151 17.25 100.3125 C16.55519531 100.53679687 15.86039062 100.76109375 15.14453125 100.9921875 C1.41638562 104.75261763 -13.94517675 102.61602177 -26.375 95.86328125 C-38.04606883 88.242534 -44.4411982 75.69114355 -47.3203125 62.30859375 C-49.55492479 46.72725167 -46.90807923 30.22682203 -37.375 17.4375 C-27.58502833 5.7737488 -15.27167539 -0.11405408 0 0 Z " fill="#FBFDFD" transform="translate(445.75,101.6875)"/>
<path d="M0 0 C8.3159399 5.6342989 13.07212141 13.05340385 15.43359375 22.7421875 C17.18624189 32.82293609 17.94805292 43.08382199 15 53 C12.52076199 53.02685095 10.0418116 53.04676547 7.5625 53.0625 C6.85544922 53.07087891 6.14839844 53.07925781 5.41992188 53.08789062 C3.61306441 53.09653588 1.80612397 53.05220011 0 53 C-1 52 -1 52 -1.02734375 48.5703125 C-0.99833535 47.08852298 -0.96832398 45.60675287 -0.9375 44.125 C-0.8531423 34.5182651 -0.88543889 24.88456564 -7 17 C-12.12776428 12.83833624 -17.61091025 12.44084665 -24.03515625 12.67578125 C-30.73618597 13.40856843 -36.86677834 15.55120789 -42 20 C-50.95155419 31.56242417 -52.07868006 45.85505299 -52.31640625 59.96484375 C-52.33718735 60.99815323 -52.35796844 62.03146271 -52.37937927 63.09608459 C-52.44443478 66.37649284 -52.50355404 69.65697685 -52.5625 72.9375 C-52.60572711 75.16992951 -52.64934271 77.40235154 -52.69335938 79.63476562 C-52.80007071 85.08976511 -52.90191644 90.54483892 -53 96 C-55.81256281 96.02684312 -58.62487241 96.04676188 -61.4375 96.0625 C-62.23994141 96.07087891 -63.04238281 96.07925781 -63.86914062 96.08789062 C-65.91295221 96.0965143 -67.95683902 96.0522815 -70 96 C-71.88464923 94.11535077 -71.12666491 91.37681808 -71.13552856 88.86897278 C-71.13350433 87.98738998 -71.1314801 87.10580719 -71.12939453 86.19750977 C-71.13114685 85.27398712 -71.13289917 84.35046448 -71.13470459 83.3989563 C-71.13912512 80.32975413 -71.13618417 77.26060906 -71.1328125 74.19140625 C-71.13348554 72.06770313 -71.13445556 69.94400009 -71.13571167 67.82029724 C-71.13718896 63.3622057 -71.13503329 58.90413415 -71.13037109 54.44604492 C-71.12467725 48.72129249 -71.12795044 42.99658698 -71.13394356 37.27183628 C-71.13755127 32.88392277 -71.13640955 28.49602045 -71.13381577 24.10810661 C-71.1331469 21.99690686 -71.13397351 19.8857061 -71.13629532 17.77450752 C-71.13882489 14.82693912 -71.13497673 11.87944743 -71.12939453 8.93188477 C-71.13141876 8.0523262 -71.13344299 7.17276764 -71.13552856 6.26655579 C-71.11426308 0.22852617 -71.11426308 0.22852617 -70 -2 C-64.39 -2 -58.78 -2 -53 -2 C-52.67 3.94 -52.34 9.88 -52 16 C-51.01 14.659375 -50.02 13.31875 -49 11.9375 C-36.93314297 -3.41154214 -18.26718806 -9.93993058 0 0 Z M-53 17 C-52 20 -52 20 -52 20 Z " fill="#FBFDFD" transform="translate(839,106)"/>
<path d="M0 0 C1.25748047 -0.00193359 2.51496094 -0.00386719 3.81054688 -0.00585938 C5.20052218 -0.00173482 6.59049624 0.00283397 7.98046875 0.0078125 C9.02618042 0.00914185 9.02618042 0.00914185 10.09301758 0.01049805 C27.45946101 0.03616761 44.81205518 0.57035234 62.16796875 1.1328125 C62.16796875 6.0828125 62.16796875 11.0328125 62.16796875 16.1328125 C50.28796875 16.1328125 38.40796875 16.1328125 26.16796875 16.1328125 C26.66296875 19.1028125 26.66296875 19.1028125 27.16796875 22.1328125 C27.22571636 24.68060245 27.23864858 27.19685952 27.1953125 29.7421875 C27.18075971 31.22631302 27.16678333 32.71044428 27.15332031 34.19458008 C27.14498169 34.96154205 27.13664307 35.72850403 27.12805176 36.51870728 C25.59888885 60.06235908 25.59888885 60.06235908 33.16796875 81.1328125 C41.03855408 85.99405638 52.52910013 83.95993822 61.16796875 83.1328125 C61.16796875 88.0828125 61.16796875 93.0328125 61.16796875 98.1328125 C55.52444195 99.73435389 50.52156938 100.44678628 44.66796875 100.3828125 C43.96027344 100.39054687 43.25257813 100.39828125 42.5234375 100.40625 C33.86966397 100.37460915 25.84528838 98.39568608 19.31640625 92.4453125 C12.53306534 85.28672295 9.03230815 76.36611898 9.05444336 66.53808594 C9.05451889 65.41722595 9.05459442 64.29636597 9.05467224 63.14154053 C9.05983353 61.93725403 9.06499481 60.73296753 9.0703125 59.4921875 C9.07172745 58.25486877 9.0731424 57.01755005 9.07460022 55.74273682 C9.07924765 52.46136309 9.08822528 49.18003877 9.0993042 45.89868164 C9.10955355 42.54704239 9.11402016 39.19540102 9.11914062 35.84375 C9.13016851 29.2734157 9.14743258 22.70312369 9.16796875 16.1328125 C3.88796875 16.1328125 -1.39203125 16.1328125 -6.83203125 16.1328125 C-6.85265625 13.6784375 -6.87328125 11.2240625 -6.89453125 8.6953125 C-6.90363525 7.92131104 -6.91273926 7.14730957 -6.92211914 6.34985352 C-6.92928038 4.61059533 -6.88227827 2.87135946 -6.83203125 1.1328125 C-5.04675454 -0.65246421 -2.41237623 0.00245964 0 0 Z " fill="#FBFDFD" transform="translate(598.83203125,102.8671875)"/>
<path d="M0 0 C0.33 0.66 0.66 1.32 1 2 C35.32 2.33 69.64 2.66 105 3 C104.67 3.66 104.34 4.32 104 5 C100.7 5 97.4 5 94 5 C94 5.66 94 6.32 94 7 C90.85405412 7.93017529 88.06620884 8.1092096 84.79174805 8.07836914 C83.75354416 8.07249283 82.71534027 8.06661652 81.64567566 8.06056213 C80.52896988 8.05217819 79.4122641 8.04379425 78.26171875 8.03515625 C75.89127171 8.03886907 73.52082729 8.04479772 71.15039062 8.05273438 C67.41703493 8.06329376 63.68558996 8.0624804 59.95239258 8.02416992 C56.34611345 7.99102792 52.74299078 8.00864751 49.13671875 8.03515625 C48.02608566 8.01260269 46.91545258 7.99004913 45.77116394 7.96681213 C39.83882197 8.03232575 39.83882197 8.03232575 34.72744751 10.73995972 C32.04411926 13.71533817 30.27160174 16.18519479 29 20 C27.68 20 26.36 20 25 20 C25.66 21.98 26.32 23.96 27 26 C45.81 26.33 64.62 26.66 84 27 C84.91683589 33.4178512 85.18346311 39.3655836 85.1875 45.8125 C85.19974609 46.86115234 85.21199219 47.90980469 85.22460938 48.99023438 C85.22654297 49.98990234 85.22847656 50.98957031 85.23046875 52.01953125 C85.23457764 52.92807861 85.23868652 53.83662598 85.24291992 54.77270508 C85 57 85 57 83 59 C80.93722534 59.24050903 80.93722534 59.24050903 78.36669922 59.22705078 C77.40585419 59.22689972 76.44500916 59.22674866 75.45504761 59.22659302 C74.41542877 59.21627045 73.37580994 59.20594788 72.3046875 59.1953125 C71.24210724 59.1924826 70.17952698 59.18965271 69.08474731 59.18673706 C65.68138501 59.17551639 62.27828314 59.15040837 58.875 59.125 C56.57161838 59.11497264 54.26823264 59.10584637 51.96484375 59.09765625 C46.30980655 59.07557093 40.65492187 59.04207489 35 59 C35 57.68 35 56.36 35 55 C36.08418213 55.01047363 37.16836426 55.02094727 38.28540039 55.03173828 C42.33142762 55.06810643 46.37744057 55.09096137 50.42358398 55.10986328 C52.17035355 55.11988268 53.9171065 55.13350195 55.66381836 55.15087891 C58.18347285 55.17530669 60.70290439 55.18652389 63.22265625 55.1953125 C63.99585709 55.20563507 64.76905792 55.21595764 65.56568909 55.22659302 C70.42129596 55.22758391 74.39049673 54.54272894 79 53 C79.020625 51.700625 79.04125 50.40125 79.0625 49.0625 C79.07410156 48.33160156 79.08570312 47.60070312 79.09765625 46.84765625 C78.96172341 42.88385465 78.43798598 38.94187381 78 35 C47.97 34.67 17.94 34.34 -13 34 C-13.33 33.34 -13.66 32.68 -14 32 C-12.71937515 30.2925002 -11.38232443 28.62626404 -10 27 C-9.34 27 -8.68 27 -8 27 C-7.79375 26.34 -7.5875 25.68 -7.375 25 C-5.80273485 21.56960331 -3.77124771 18.91120024 -1.4375 15.96484375 C-0.03195969 14.04368403 0.96420501 12.13632717 2 10 C1.42967041 9.97494385 0.85934082 9.9498877 0.27172852 9.92407227 C-2.29826157 9.80843451 -4.86785527 9.68556376 -7.4375 9.5625 C-8.33533203 9.52318359 -9.23316406 9.48386719 -10.15820312 9.44335938 C-11.01220703 9.40146484 -11.86621094 9.35957031 -12.74609375 9.31640625 C-13.93223267 9.26141968 -13.93223267 9.26141968 -15.14233398 9.20532227 C-17 9 -17 9 -18 8 C-18.04080783 6.00041636 -18.04254356 3.99954746 -18 2 C-15.03824877 2.61277612 -13.61941217 3.25372522 -11 5 C-10.67 4.01 -10.34 3.02 -10 2 C-6.75515269 -0.28341107 -3.87540045 -0.17615457 0 0 Z " fill="#0DF89C" transform="translate(40,90)"/>
<path d="M0 0 C1.69711372 -0.00856522 1.69711372 -0.00856522 3.42851257 -0.01730347 C4.65522675 -0.01842133 5.88194092 -0.01953918 7.14582825 -0.02069092 C8.44886398 -0.02565582 9.75189972 -0.03062073 11.09442139 -0.03573608 C14.65613692 -0.04880161 18.21783366 -0.05529234 21.77956939 -0.05974674 C24.00516177 -0.06268402 26.23074907 -0.06678982 28.45633888 -0.07125092 C35.42151908 -0.08490396 42.38668761 -0.09458406 49.35188025 -0.09845281 C57.39056587 -0.1029429 65.42908225 -0.12054379 73.4677164 -0.1494534 C79.68609536 -0.17104143 85.90442656 -0.18115537 92.12284261 -0.18249393 C95.83577802 -0.18354307 99.54855386 -0.1894751 103.26144981 -0.20731354 C107.39619193 -0.22679592 111.53057667 -0.22251688 115.6653595 -0.21600342 C116.89814636 -0.2252182 118.13093323 -0.23443298 119.40107727 -0.243927 C120.52402695 -0.23835785 121.64697662 -0.2327887 122.80395508 -0.22705078 C123.78155887 -0.22851734 124.75916265 -0.2299839 125.7663908 -0.2314949 C128.62718648 0.20367351 129.51084937 0.84020707 131.21150208 3.14044189 C133.54621267 13.20999521 133.66037645 26.36863116 130.21150208 36.14044189 C127.11972753 37.68632917 123.86724841 37.24929108 120.47639465 37.21881104 C118.82086248 37.21269397 117.16532959 37.20676732 115.50979614 37.20100403 C114.62966669 37.19633181 113.74953724 37.19165958 112.8427372 37.18684578 C108.18634233 37.16770837 103.53001804 37.18287716 98.87361145 37.19317627 C92.94584355 37.20542146 87.01879643 37.20714603 81.09114075 37.16461182 C76.30324103 37.13116023 71.51676834 37.13668729 66.7288723 37.16818047 C64.90647843 37.17309994 63.08398766 37.16384531 61.26174355 37.13997078 C51.41714107 36.67481921 51.41714107 36.67481921 42.49650574 39.98587036 C40.74655029 41.96530581 39.40481299 43.79036726 38.21150208 46.14044189 C37.88150208 45.15044189 37.55150208 44.16044189 37.21150208 43.14044189 C39.52400208 39.95294189 39.52400208 39.95294189 42.21150208 37.14044189 C42.87150208 37.14044189 43.53150208 37.14044189 44.21150208 37.14044189 C44.54150208 36.15044189 44.87150208 35.16044189 45.21150208 34.14044189 C73.42650208 33.64544189 73.42650208 33.64544189 102.21150208 33.14044189 C102.21150208 32.48044189 102.21150208 31.82044189 102.21150208 31.14044189 C101.55150208 30.81044189 100.89150208 30.48044189 100.21150208 30.14044189 C101.06615051 30.15204346 101.92079895 30.16364502 102.80134583 30.17559814 C103.90607239 30.18462158 105.01079895 30.19364502 106.14900208 30.20294189 C107.80222473 30.22034424 107.80222473 30.22034424 109.48884583 30.23809814 C112.12597841 30.45306761 112.12597841 30.45306761 113.21150208 29.14044189 C114.89759173 29.06838678 116.58650867 29.05658122 118.27400208 29.07794189 C119.19310364 29.08696533 120.1122052 29.09598877 121.05915833 29.10528564 C121.76943176 29.11688721 122.4797052 29.12848877 123.21150208 29.14044189 C123.19990051 28.28321533 123.18829895 27.42598877 123.17634583 26.54278564 C123.16732239 25.39938721 123.15829895 24.25598877 123.14900208 23.07794189 C123.13740051 21.95259033 123.12579895 20.82723877 123.11384583 19.66778564 C123.21299881 16.08637991 123.67845823 12.67992682 124.21150208 9.14044189 C123.62196527 9.13620996 123.03242846 9.13197802 122.42502689 9.12761784 C108.05139056 9.02411681 93.67780005 8.91545084 79.30424595 8.80110264 C72.3531817 8.74592708 65.40211232 8.6924717 58.45100403 8.64312744 C51.74013487 8.59548368 45.02931989 8.54296476 38.31851006 8.48750114 C35.7609524 8.46715473 33.20338131 8.44842927 30.64579964 8.43136787 C27.05770654 8.40715244 23.46970491 8.37712218 19.88166809 8.34576416 C18.8293399 8.3400087 17.77701172 8.33425323 16.6927948 8.32832336 C10.7920345 8.26988482 5.06502081 7.89672265 -0.78849792 7.14044189 C-0.45849792 5.82044189 -0.12849792 4.50044189 0.21150208 3.14044189 C-3.74849792 2.81044189 -7.70849792 2.48044189 -11.78849792 2.14044189 C-11.78849792 1.81044189 -11.78849792 1.48044189 -11.78849792 1.14044189 C-7.81038137 0.39973766 -4.0444415 0.01229225 0 0 Z " fill="#10E791" transform="translate(31.788497924804688,63.85955810546875)"/>
<path d="M0 0 C4.95 0 9.9 0 15 0 C14.34 1.32 13.68 2.64 13 4 C19.47557497 4.96048308 25.80032485 5.16298495 32.34130859 5.18945312 C34.0061026 5.20189308 34.0061026 5.20189308 35.70452881 5.21458435 C38.10202017 5.23191424 40.49952781 5.24709996 42.89704514 5.26036072 C46.68723621 5.28146605 50.47734478 5.30847829 54.26748657 5.33703613 C62.98786871 5.40163279 71.70829652 5.45772448 80.42874146 5.51302338 C89.07686893 5.56791652 97.72494826 5.62652444 106.37300491 5.69187927 C110.11449063 5.71850839 113.85598061 5.73928272 117.59750366 5.7598877 C119.87669078 5.77648203 122.15587591 5.7933531 124.43505859 5.81054688 C126.00439651 5.8168235 126.00439651 5.8168235 127.60543823 5.82322693 C129.03104065 5.83574242 129.03104065 5.83574242 130.48544312 5.84851074 C131.31388418 5.85366447 132.14232525 5.85881821 132.99587059 5.86412811 C135 6 135 6 137 7 C136.67 13.6 136.34 20.2 136 27 C121.18807199 27.04627596 106.37615933 27.08197797 91.5641737 27.10362434 C84.6868818 27.11394178 77.80963561 27.128011 70.93237305 27.15087891 C64.29937655 27.1729241 57.66641518 27.1845585 51.03338051 27.18975449 C48.49875451 27.19345888 45.96413121 27.2006923 43.42952538 27.21146011 C39.88809901 27.22591113 36.34687088 27.22798061 32.80541992 27.22705078 C31.22262238 27.23783661 31.22262238 27.23783661 29.60784912 27.24884033 C28.64451157 27.246091 27.68117401 27.24334167 26.68864441 27.24050903 C25.43177968 27.24327441 25.43177968 27.24327441 24.14952374 27.24609566 C22 27 22 27 19 25 C75.43 24.505 75.43 24.505 133 24 C133 19.38 133 14.76 133 10 C133.33 9.34 133.66 8.68 134 8 C72.62 8.495 72.62 8.495 10 9 C10 13.95 10 18.9 10 24 C11.65 24 13.3 24 15 24 C14.360625 24.2475 13.72125 24.495 13.0625 24.75 C10.81258459 25.81562433 10.81258459 25.81562433 10.25 28.125 C10.12625 29.053125 10.12625 29.053125 10 30 C6.535 28.02 6.535 28.02 3 26 C3.33 27.98 3.66 29.96 4 32 C5.20398438 32.06058594 6.40796875 32.12117188 7.6484375 32.18359375 C9.22397077 32.26799732 10.79949096 32.35264541 12.375 32.4375 C13.56609375 32.49647461 13.56609375 32.49647461 14.78125 32.55664062 C20.7734375 32.88671875 20.7734375 32.88671875 23 34 C21.5767633 40.16735903 17.90360687 44.21829894 14 49 C13.49339844 49.72960937 12.98679687 50.45921875 12.46484375 51.2109375 C11 53 11 53 8 54 C8 54.99 8 55.98 8 57 C38.03 57.33 68.06 57.66 99 58 C99.495 64.435 99.495 64.435 100 71 C99.34 71.66 98.68 72.32 98 73 C98 68.38 98 63.76 98 59 C54.935 59.495 54.935 59.495 11 60 C10.67 64.95 10.34 69.9 10 75 C30.13 75 50.26 75 71 75 C68.35901327 77.64098673 67.10883332 77.27629585 63.42041016 77.3347168 C62.25224762 77.35781418 61.08408508 77.38091156 59.88052368 77.40470886 C57.9790004 77.42674126 57.9790004 77.42674126 56.0390625 77.44921875 C54.74181244 77.47095657 53.44456238 77.4926944 52.10800171 77.51509094 C49.35916213 77.56052537 46.61033548 77.59930335 43.86132812 77.63305664 C40.34161517 77.67651615 36.82227715 77.73325322 33.30283546 77.7946043 C29.9441577 77.85198844 26.58537665 77.90043897 23.2265625 77.94921875 C21.96292877 77.96997971 20.69929504 77.99074066 19.39736938 78.01213074 C18.22290253 78.02577164 17.04843567 78.03941254 15.83837891 78.0534668 C14.8051651 78.06741989 13.77195129 78.08137299 12.70742798 78.0957489 C10.29238873 78.0103404 8.30208132 77.69925199 6 77 C5.34 78.65 4.68 80.3 4 82 C7.63 82.66 11.26 83.32 15 84 C15 84.33 15 84.66 15 85 C12.87527424 85.05386629 10.75016348 85.09273071 8.625 85.125 C7.44164062 85.14820313 6.25828125 85.17140625 5.0390625 85.1953125 C2 85 2 85 0 83 C-1.36599667 76.63984988 -1.18362254 70.16672759 -1.1875 63.6875 C-1.20586914 62.04297852 -1.20586914 62.04297852 -1.22460938 60.36523438 C-1.22654297 59.32044922 -1.22847656 58.27566406 -1.23046875 57.19921875 C-1.23457764 56.24877686 -1.23868652 55.29833496 -1.24291992 54.3190918 C-1 52 -1 52 1 50 C2.42267364 49.51645867 3.86329463 49.0845092 5.3125 48.6875 C12.58863096 46.34374628 15.57422678 41.47090498 19 35 C17.96359375 35.02320313 16.9271875 35.04640625 15.859375 35.0703125 C14.48959056 35.08907667 13.1197983 35.10727618 11.75 35.125 C11.06808594 35.14175781 10.38617188 35.15851563 9.68359375 35.17578125 C2.59095795 35.24464179 2.59095795 35.24464179 0 33 C-0.87558826 28.9783775 -1.12819511 25.12246261 -1.1328125 21.015625 C-1.13410156 19.91605469 -1.13539062 18.81648438 -1.13671875 17.68359375 C-1.13285156 16.55050781 -1.12898438 15.41742188 -1.125 14.25 C-1.12886719 13.10144531 -1.13273437 11.95289062 -1.13671875 10.76953125 C-1.13542969 9.67511719 -1.13414063 8.58070312 -1.1328125 7.453125 C-1.13168457 6.45442383 -1.13055664 5.45572266 -1.12939453 4.42675781 C-1 2 -1 2 0 0 Z " fill="#1BF19A" transform="translate(19,66)"/>
<path d="M0 0 C1.32 0.33 2.64 0.66 4 1 C4 3.31 4 5.62 4 8 C2.3603125 8.8353125 2.3603125 8.8353125 0.6875 9.6875 C-2.75283076 11.64552392 -4.11490144 13.48686178 -6 17 C-7.62652316 18.70586575 -9.29006566 20.3777546 -11 22 C-13.18612954 23.75375871 -13.18612954 23.75375871 -13.15112305 25.8918457 C-13.10511963 26.64554443 -13.05911621 27.39924316 -13.01171875 28.17578125 C-12.96466797 29.00400391 -12.91761719 29.83222656 -12.86914062 30.68554688 C-12.80919922 31.55244141 -12.74925781 32.41933594 -12.6875 33.3125 C-12.63916016 34.16779297 -12.59082031 35.02308594 -12.54101562 35.90429688 C-12.28539913 40.08152339 -11.82688044 43.8655978 -11 48 C33.88 48.33 78.76 48.66 125 49 C125.66 43.06 126.32 37.12 127 31 C126.01 30.01 126.01 30.01 125 29 C124.73008094 26.31160615 124.91262643 23.70858064 125 21 C120.05924716 19.4005882 115.92009752 18.75109349 110.67529297 18.75708008 C109.63242126 18.75423256 109.63242126 18.75423256 108.56848145 18.75132751 C106.29293176 18.74765246 104.01770833 18.75827586 101.7421875 18.76953125 C100.1499129 18.77072491 98.55763758 18.77117582 96.96536255 18.7709198 C93.63848421 18.77247895 90.31171434 18.7807261 86.98486328 18.79418945 C82.7268375 18.81120607 78.46893036 18.81500262 74.21087456 18.81424427 C70.9268786 18.8145165 67.64290842 18.82000581 64.35892105 18.82724571 C62.78888265 18.83042033 61.21884133 18.83239696 59.6487999 18.83313942 C57.45445555 18.83531426 55.26023547 18.84408229 53.06591797 18.85473633 C51.81906219 18.85854813 50.57220642 18.86235992 49.28756714 18.86628723 C46.0588173 18.91040569 46.0588173 18.91040569 43.18338013 19.57157898 C41 20 41 20 39 19 C36.47278622 18.72690486 33.94588875 18.55442823 31.41015625 18.37890625 C29 18 29 18 26 16 C26 14.68 26 13.36 26 12 C26.99 12 27.98 12 29 12 C29.28875 11.4225 29.5775 10.845 29.875 10.25 C30.24625 9.5075 30.6175 8.765 31 8 C31.309375 7.278125 31.61875 6.55625 31.9375 5.8125 C33 4 33 4 36 3 C36 6.58912412 35.33563446 7.10857029 33 9.6875 C32.443125 10.31011719 31.88625 10.93273437 31.3125 11.57421875 C30.879375 12.04472656 30.44625 12.51523438 30 13 C33.66653868 16.66653868 47.44356398 15.05643134 52.68545151 15.07130241 C55.89374398 15.06383566 59.10175917 15.04277983 62.30992889 15.01403427 C64.92474069 14.99162737 67.53947635 14.97780485 70.15435791 14.96633911 C77.57566524 14.93307003 84.99684243 14.89061313 92.41796875 14.82861328 C96.98693777 14.79104167 101.5557853 14.76797728 106.12488556 14.75430679 C107.85849701 14.74625535 109.59209194 14.73265041 111.32561493 14.71337509 C113.73513645 14.68699187 116.14406331 14.67901339 118.55371094 14.67529297 C119.26741852 14.6629361 119.9811261 14.65057922 120.71646118 14.6378479 C123.59262565 14.64960051 125.53046925 14.67425442 127.93341064 16.34133911 C130.68375536 20.61842025 129.83828401 27.07991345 130 32 C130.07927734 33.91039062 130.07927734 33.91039062 130.16015625 35.859375 C130.41982194 46.56211738 130.41982194 46.56211738 127 51 C124.59968567 51.66438293 124.59968567 51.66438293 121.65161133 51.71801758 C120.50432053 51.74876877 119.35702972 51.77951996 118.17497253 51.811203 C116.88617691 51.81807632 115.59738129 51.82494965 114.26953125 51.83203125 C112.87113673 51.85566836 111.47276508 51.88068963 110.07441711 51.90693665 C105.04959312 51.98623961 100.02537407 51.99673986 95 52 C94.01501274 52.0011657 93.03002548 52.00233139 92.01519012 52.00353241 C77.02106234 52.01444514 62.02869197 51.90768966 47.03540039 51.75805664 C40.83752703 51.6964377 34.63963585 51.65000747 28.44160748 51.60722637 C23.63502418 51.57200897 18.82855592 51.52777999 14.02207375 51.48087502 C11.73309762 51.45985892 9.44409077 51.44194796 7.15506554 51.4272213 C3.98821242 51.40576112 0.8217315 51.37188745 -2.3449707 51.3347168 C-3.28444046 51.33098557 -4.22391022 51.32725433 -5.19184875 51.32341003 C-6.05004211 51.31080139 -6.90823547 51.29819275 -7.79243469 51.28520203 C-8.53716191 51.27837245 -9.28188913 51.27154287 -10.04918385 51.26450634 C-12 51 -12 51 -15 49 C-16.42473117 42.87034265 -16.21847402 36.51578926 -16.25 30.25 C-16.270625 29.20972656 -16.29125 28.16945312 -16.3125 27.09765625 C-16.32023437 25.60298828 -16.32023437 25.60298828 -16.328125 24.078125 C-16.3374707 23.17481445 -16.34681641 22.27150391 -16.35644531 21.34082031 C-15.92831985 18.52926764 -15.1845016 17.74945817 -13 16 C-12.319375 15.443125 -11.63875 14.88625 -10.9375 14.3125 C-9 13 -9 13 -7 13 C-7 12.34 -7 11.68 -7 11 C-6.34 11 -5.68 11 -5 11 C-5 10.34 -5 9.68 -5 9 C-4.34 9 -3.68 9 -3 9 C-2.731875 8.4225 -2.46375 7.845 -2.1875 7.25 C-0.98280141 4.9674132 0.40798115 3.0262058 2 1 C1.34 0.67 0.68 0.34 0 0 Z " fill="#33CF9B" transform="translate(34,151)"/>
<path d="M0 0 C3.62011046 2.33296007 5.89022378 4.96794755 7.8125 8.8125 C8.39075746 13.55231526 8.28510429 16.93247823 6 21.1875 C5.278125 22.05375 4.55625 22.92 3.8125 23.8125 C3.338125 24.39 2.86375 24.9675 2.375 25.5625 C-1.09895692 28.34166553 -3.66712554 28.82075991 -8.125 28.75 C-12.57331529 28.0281979 -15.06479912 26.08044278 -18.1875 22.8125 C-21.20995131 18.5225691 -21.66801617 15.1246175 -20.8984375 10.0625 C-19.45153143 5.4832808 -16.29993264 2.05754871 -12.19921875 -0.359375 C-7.97145922 -2.09973426 -4.19032883 -1.5611029 0 0 Z " fill="#0FF295" transform="translate(874.1875,174.1875)"/>
<path d="M0 0 C4.42245767 3.73431592 6.7524722 7.4257109 7.3125 13.25 C6.94735052 17.63179373 5.88506316 20.71783545 3 24 C-0.74436247 26.89111173 -4.36747128 28.36456159 -9.125 28 C-14.34432932 26.9643374 -17.8634916 24.66687898 -20.875 20.25 C-22.23736109 16.31429019 -22.74067674 13.11487079 -22 9 C-19.56721149 4.31462953 -16.28370282 0.11046382 -11.1171875 -1.63671875 C-7.18093644 -2.31212714 -3.6623464 -1.51436123 0 0 Z " fill="#0EF69B" transform="translate(624,68)"/>
<path d="M0 0 C39.6 0 79.2 0 120 0 C120 0.66 120 1.32 120 2 C120.99 2.99 120.99 2.99 122 4 C121 5 121 5 118.98725033 5.12304783 C118.09587651 5.12212604 117.2045027 5.12120424 116.28611755 5.12025452 C114.7568866 5.12231651 114.7568866 5.12231651 113.19676208 5.12442017 C112.068918 5.12082489 110.94107391 5.11722961 109.77905273 5.11352539 C108.59872467 5.11367142 107.41839661 5.11381744 106.20230103 5.1139679 C102.95657892 5.11338895 99.71089945 5.10835986 96.46518588 5.10139394 C93.07656968 5.09515962 89.68795272 5.09455654 86.29933167 5.09336853 C79.87844196 5.09025544 73.45756919 5.08204236 67.03668696 5.07201904 C59.72846175 5.0608572 52.42023576 5.05534727 45.11200416 5.05032361 C30.07465998 5.03985973 15.03733168 5.02226073 0 5 C0 3.33333333 0 1.66666667 0 0 Z " fill="#0DF9A0" transform="translate(33,195)"/>
<path d="M0 0 C0 0.66 0 1.32 0 2 C0.66 2 1.32 2 2 2 C2 3.98 2 5.96 2 8 C1.34 8 0.68 8 0 8 C0.495 13.94 0.495 13.94 1 20 C-4.71011216 21.21636621 -10.31880536 21.14778779 -16.12670898 21.14526367 C-17.23800171 21.14862228 -18.34929443 21.1519809 -19.4942627 21.15544128 C-23.16155113 21.164927 -26.82879381 21.16689309 -30.49609375 21.16796875 C-33.04907754 21.17118256 -35.60206115 21.17454673 -38.15504456 21.17805481 C-43.50384014 21.18403982 -48.85261872 21.1859382 -54.20141602 21.18530273 C-60.37259492 21.18470189 -66.54368642 21.19525886 -72.71484321 21.2110464 C-78.66608446 21.22572543 -84.61729914 21.22929008 -90.56855965 21.22869301 C-93.09429341 21.2298725 -95.62002784 21.23429253 -98.14575005 21.24202538 C-101.67853925 21.25183029 -105.21110361 21.24894525 -108.74389648 21.24291992 C-109.78463821 21.24853943 -110.82537994 21.25415894 -111.8976593 21.25994873 C-112.86623871 21.25575424 -113.83481812 21.25155975 -114.83274841 21.24723816 C-116.08345454 21.24805531 -116.08345454 21.24805531 -117.35942745 21.24888897 C-120 21 -120 21 -127 19 C-127 13.39 -127 7.78 -127 2 C-126.67 2 -126.34 2 -126 2 C-126 7.28 -126 12.56 -126 18 C-85.41 18 -44.82 18 -3 18 C-3 14.04 -3 10.08 -3 6 C-2.67 4.68 -2.34 3.36 -2 2 C-42.59 2 -83.18 2 -125 2 C-125 1.67 -125 1.34 -125 1 C-109.14498865 0.86946678 -93.28997615 0.73907387 -77.43496227 0.60884857 C-70.07342156 0.54838121 -62.71188124 0.48786772 -55.3503418 0.42724609 C-48.93499062 0.37441636 -42.51963875 0.32167271 -36.10428602 0.26903296 C-32.7065544 0.2411506 -29.30882316 0.21322478 -25.91109276 0.18519592 C-22.12066107 0.15394918 -18.33022816 0.12285457 -14.53979492 0.09179688 C-13.40979065 0.08244614 -12.27978638 0.0730954 -11.11553955 0.0634613 C-10.08488876 0.05504715 -9.05423798 0.046633 -7.99235535 0.03796387 C-6.64699849 0.02690235 -6.64699849 0.02690235 -5.2744627 0.01561737 C-3.5163422 0.00354541 -1.75816194 0 0 0 Z " fill="#33E0A3" transform="translate(155,174)"/>
<path d="M0 0 C1.32 0.33 2.64 0.66 4 1 C3.67 1.99 3.34 2.98 3 4 C4.06448868 4.01213028 4.06448868 4.01213028 5.15048218 4.02450562 C11.83114337 4.10237503 18.5116075 4.18964211 25.19200706 4.28752708 C28.62666136 4.33752038 32.06128445 4.38384978 35.49609375 4.421875 C39.44288688 4.4657274 43.38936366 4.52539148 47.3359375 4.5859375 C48.57242035 4.59748871 49.8089032 4.60903992 51.08285522 4.62094116 C52.22388702 4.64081085 53.36491882 4.66068054 54.54052734 4.68115234 C55.548685 4.69447601 56.55684265 4.70779968 57.59555054 4.7215271 C60 5 60 5 62 7 C63.3921674 12.23127504 63.18395052 17.50108685 63.1875 22.875 C63.19974609 23.84308594 63.21199219 24.81117188 63.22460938 25.80859375 C63.22654297 26.75605469 63.22847656 27.70351562 63.23046875 28.6796875 C63.23457764 29.53288574 63.23868652 30.38608398 63.24291992 31.26513672 C62.94028241 34.67231807 62.01398508 37.74128252 61 41 C56.64052311 41.14585899 52.28094555 41.28806101 47.92123413 41.42669678 C46.39454184 41.47543373 44.86786912 41.52478747 43.34121704 41.57476807 C33.91774316 41.88108107 24.50519097 42.17997439 15.07861328 41.78710938 C11.9657718 41.7139222 10.23876891 41.8530067 7.55078125 43.5078125 C7.03902344 44.00023437 6.52726562 44.49265625 6 45 C7.75 40.125 7.75 40.125 10 39 C11.53627451 38.88680743 13.07716194 38.83337615 14.61743164 38.81054688 C15.57504898 38.79382935 16.53266632 38.77711182 17.51930237 38.7598877 C18.55578415 38.74631226 19.59226593 38.73273682 20.66015625 38.71875 C21.72036484 38.70034058 22.78057343 38.68193115 23.87290955 38.66296387 C28.4240381 38.58406616 32.97531839 38.51639699 37.52661133 38.44775391 C40.84203745 38.39616852 44.15733042 38.33886919 47.47265625 38.28125 C48.51116226 38.26767456 49.54966827 38.25409912 50.61964417 38.2401123 C51.57410934 38.22339478 52.52857452 38.20667725 53.51196289 38.18945312 C54.77865562 38.17066101 54.77865562 38.17066101 56.07093811 38.15148926 C58.00693677 38.20958916 58.00693677 38.20958916 59 37 C59.08783542 34.78144736 59.10694609 32.56011504 59.09765625 30.33984375 C59.0962413 29.67537735 59.09482635 29.01091095 59.09336853 28.3263092 C59.08775518 26.19666101 59.07520054 24.06711661 59.0625 21.9375 C59.05748671 20.49674631 59.05292351 19.05599097 59.04882812 17.61523438 C59.03778145 14.07678898 59.02050792 10.53840461 59 7 C58.29034088 7.00666183 57.58068176 7.01332367 56.84951782 7.02018738 C50.16905407 7.08024197 43.48866539 7.12594541 36.80799294 7.15543652 C33.37318046 7.17110785 29.93859059 7.19237214 26.50390625 7.22631836 C22.55731856 7.2650808 18.61082172 7.27969712 14.6640625 7.29296875 C13.42757965 7.30845261 12.1910968 7.32393646 10.91714478 7.33988953 C9.77611298 7.34011612 8.63508118 7.34034271 7.45947266 7.34057617 C6.451315 7.34723801 5.44315735 7.35389984 4.40444946 7.36076355 C3.61098114 7.24171158 2.81751282 7.12265961 2 7 C0 4 0 4 0 0 Z " fill="#2EEAA9" transform="translate(65,110)"/>
<path d="M0 0 C1.32 0.33 2.64 0.66 4 1 C4 3.31 4 5.62 4 8 C2.3603125 8.8353125 2.3603125 8.8353125 0.6875 9.6875 C-2.75283076 11.64552392 -4.11490144 13.48686178 -6 17 C-7.62652316 18.70586575 -9.29006566 20.3777546 -11 22 C-13.18612954 23.75375871 -13.18612954 23.75375871 -13.15112305 25.8918457 C-13.10511963 26.64554443 -13.05911621 27.39924316 -13.01171875 28.17578125 C-12.96466797 29.00400391 -12.91761719 29.83222656 -12.86914062 30.68554688 C-12.80919922 31.55244141 -12.74925781 32.41933594 -12.6875 33.3125 C-12.63916016 34.16779297 -12.59082031 35.02308594 -12.54101562 35.90429688 C-12.28539913 40.08152339 -11.82688044 43.8655978 -11 48 C33.88 48.33 78.76 48.66 125 49 C125 47.68 125 46.36 125 45 C125.66 45 126.32 45 127 45 C126.67 46.65 126.34 48.3 126 50 C107.76354002 50.02332809 89.52708389 50.04097873 71.29061222 50.05181217 C62.82370061 50.05697532 54.35679825 50.06401838 45.88989258 50.07543945 C38.51282906 50.08538572 31.13577225 50.09185329 23.75870222 50.09408849 C19.85017947 50.0953957 15.94167588 50.09848217 12.03315926 50.10573006 C8.35853558 50.11248937 4.68393907 50.11461715 1.00930977 50.11310768 C-0.99079611 50.11351638 -2.99089898 50.11891204 -4.99099731 50.12442017 C-6.76003166 50.12235817 -6.76003166 50.12235817 -8.56480408 50.12025452 C-9.59629043 50.12117631 -10.62777678 50.1220981 -11.69052029 50.12304783 C-14 50 -14 50 -15 49 C-16.20284835 42.7795557 -16.21820303 36.56964742 -16.25 30.25 C-16.270625 29.20972656 -16.29125 28.16945312 -16.3125 27.09765625 C-16.32023437 25.60298828 -16.32023437 25.60298828 -16.328125 24.078125 C-16.3374707 23.17481445 -16.34681641 22.27150391 -16.35644531 21.34082031 C-15.92831985 18.52926764 -15.1845016 17.74945817 -13 16 C-12.319375 15.443125 -11.63875 14.88625 -10.9375 14.3125 C-9 13 -9 13 -7 13 C-7 12.34 -7 11.68 -7 11 C-6.34 11 -5.68 11 -5 11 C-5 10.34 -5 9.68 -5 9 C-4.34 9 -3.68 9 -3 9 C-2.731875 8.4225 -2.46375 7.845 -2.1875 7.25 C-0.98280141 4.9674132 0.40798115 3.0262058 2 1 C1.34 0.67 0.68 0.34 0 0 Z " fill="#1EEDA1" transform="translate(34,151)"/>
<path d="M0 0 C3 2 3 2 3.51171875 4.109375 C5.00186683 26.49471064 5.00186683 26.49471064 2 35 C-1.09177454 36.54588727 -4.34425367 36.10884918 -7.73510742 36.07836914 C-9.3906396 36.07225208 -11.04617249 36.06632543 -12.70170593 36.06056213 C-13.58183538 36.05588991 -14.46196484 36.05121769 -15.36876488 36.04640388 C-20.02515974 36.02726647 -24.68148404 36.04243526 -29.33789062 36.05273438 C-35.26565853 36.06497957 -41.19270564 36.06670413 -47.12036133 36.02416992 C-51.90826105 35.99071834 -56.69473373 35.99624539 -61.48262978 36.02773857 C-63.30502365 36.03265805 -65.12751441 36.02340341 -66.94975853 35.99952888 C-76.794361 35.53437731 -76.794361 35.53437731 -85.71499634 38.84542847 C-87.46495179 40.82486392 -88.80668908 42.64992537 -90 45 C-90.495 43.515 -90.495 43.515 -91 42 C-88.32756106 38.25858549 -86.3421015 35.67361361 -82 34 C-79.30350238 33.81955424 -76.71331933 33.74719513 -74.01855469 33.77294922 C-73.2181778 33.77265717 -72.4178009 33.77236511 -71.59317017 33.77206421 C-68.95262744 33.77345545 -66.31236832 33.78900692 -63.671875 33.8046875 C-61.83913324 33.80841836 -60.00638949 33.81126499 -58.17364502 33.81326294 C-53.35345946 33.82089363 -48.53339471 33.84053731 -43.71325684 33.8626709 C-38.79322952 33.88314145 -33.87318265 33.89226725 -28.953125 33.90234375 C-19.3020303 33.9237837 -9.6510252 33.95791288 0 34 C-0.00725098 33.26322021 -0.01450195 32.52644043 -0.02197266 31.76733398 C-0.0276123 30.79094971 -0.03325195 29.81456543 -0.0390625 28.80859375 C-0.04631348 27.84493896 -0.05356445 26.88128418 -0.06103516 25.88842773 C-0.00476835 23.22565718 0.24232798 20.69536324 0.625 18.0625 C1.23194901 12.96084752 0.39535798 8.3772251 -0.625 3.37109375 C-0.74875 2.58863281 -0.8725 1.80617188 -1 1 C-0.67 0.67 -0.34 0.34 0 0 Z " fill="#4BE2B2" transform="translate(160,65)"/>
<path d="M0 0 C0.66 0 1.32 0 2 0 C2 6.27 2 12.54 2 19 C-12.81192801 19.04627596 -27.62384067 19.08197797 -42.4358263 19.10362434 C-49.3131182 19.11394178 -56.19036439 19.128011 -63.06762695 19.15087891 C-69.70062345 19.1729241 -76.33358482 19.1845585 -82.96661949 19.18975449 C-85.50124549 19.19345888 -88.03586879 19.2006923 -90.57047462 19.21146011 C-94.11190099 19.22591113 -97.65312912 19.22798061 -101.19458008 19.22705078 C-102.77737762 19.23783661 -102.77737762 19.23783661 -104.39215088 19.24884033 C-105.35548843 19.246091 -106.31882599 19.24334167 -107.31135559 19.24050903 C-108.56822032 19.24327441 -108.56822032 19.24327441 -109.85047626 19.24609566 C-112 19 -112 19 -115 17 C-58.57 16.505 -58.57 16.505 -1 16 C-1 11.38 -1 6.76 -1 2 C-0.67 1.34 -0.34 0.68 0 0 Z " fill="#3CDFA3" transform="translate(153,74)"/>
<path d="M0 0 C30.03 0 60.06 0 91 0 C91.495 6.435 91.495 6.435 92 13 C91.34 13.66 90.68 14.32 90 15 C90 10.38 90 5.76 90 1 C46.935 1.495 46.935 1.495 3 2 C2.67 6.95 2.34 11.9 2 17 C22.13 17 42.26 17 63 17 C60.35549741 19.64450259 59.08319955 19.28166942 55.38867188 19.35058594 C54.21405396 19.37691101 53.03943604 19.40323608 51.82922363 19.43035889 C50.55526733 19.4481842 49.28131104 19.46600952 47.96875 19.484375 C46.66675659 19.5084845 45.36476318 19.53259399 44.02331543 19.55743408 C41.26609461 19.60737321 38.50887754 19.6501552 35.75146484 19.68798828 C32.21349374 19.73713101 28.67613308 19.80424024 25.13857269 19.87673569 C21.76960788 19.94327142 18.40046333 19.99438903 15.03125 20.046875 C13.12031555 20.08575836 13.12031555 20.08575836 11.17077637 20.12542725 C9.99615845 20.13914368 8.82154053 20.15286011 7.61132812 20.16699219 C6.05484558 20.19125275 6.05484558 20.19125275 4.46691895 20.21600342 C2 20 2 20 0 18 C0 12.06 0 6.12 0 0 Z " fill="#51D7AB" transform="translate(27,124)"/>
<path d="M0 0 C0.66 0.66 1.32 1.32 2 2 C-0.31 4.64 -2.62 7.28 -5 10 C-1.14924031 13.85075969 13.8693801 12.0572602 19.20581055 12.06811523 C23.13743336 12.06003343 27.0685282 12.03592208 31 12 C31 12.66 31 13.32 31 14 C31.74724335 13.99333817 32.49448669 13.98667633 33.26437378 13.97981262 C40.29803774 13.91976238 47.33161328 13.87405679 54.36546135 13.84456348 C57.9818704 13.82889099 61.59806808 13.80762447 65.21435547 13.77368164 C68.70269988 13.74114369 72.19084068 13.72315892 75.6793251 13.71536827 C77.66143769 13.70710731 79.64346809 13.68367913 81.62545776 13.66011047 C82.82655182 13.65988388 84.02764587 13.65965729 85.26513672 13.65942383 C86.32658905 13.65276199 87.38804138 13.64610016 88.48165894 13.63923645 C89.31271149 13.75828842 90.14376404 13.87734039 91 14 C93.28062828 17.42094242 93.21925007 18.68187222 93.125 22.6875 C93.10695313 23.68136719 93.08890625 24.67523438 93.0703125 25.69921875 C93.04710937 26.45847656 93.02390625 27.21773437 93 28 C92.01 27.34 91.02 26.68 90 26 C89.59156077 23.28796348 89.86663133 20.7562858 90 18 C85.05924716 16.4005882 80.92009752 15.75109349 75.67529297 15.75708008 C74.63242126 15.75423256 74.63242126 15.75423256 73.56848145 15.75132751 C71.29293176 15.74765246 69.01770833 15.75827586 66.7421875 15.76953125 C65.1499129 15.77072491 63.55763758 15.77117582 61.96536255 15.7709198 C58.63848421 15.77247895 55.31171434 15.7807261 51.98486328 15.79418945 C47.7268375 15.81120607 43.46893036 15.81500262 39.21087456 15.81424427 C35.9268786 15.8145165 32.64290842 15.82000581 29.35892105 15.82724571 C27.78888265 15.83042033 26.21884133 15.83239696 24.6487999 15.83313942 C22.45445555 15.83531426 20.26023547 15.84408229 18.06591797 15.85473633 C16.81906219 15.85854813 15.57220642 15.86235992 14.28756714 15.86628723 C11.0588173 15.91040569 11.0588173 15.91040569 8.18338013 16.57157898 C6 17 6 17 4 16 C1.47278622 15.72690486 -1.05411125 15.55442823 -3.58984375 15.37890625 C-6 15 -6 15 -9 13 C-9 11.68 -9 10.36 -9 9 C-8.01 9 -7.02 9 -6 9 C-5.71125 8.4225 -5.4225 7.845 -5.125 7.25 C-4.568125 6.13625 -4.568125 6.13625 -4 5 C-3.67 4.278125 -3.34 3.55625 -3 2.8125 C-2 1 -2 1 0 0 Z " fill="#21F5A3" transform="translate(69,154)"/>
<path d="M0 0 C0.66 0 1.32 0 2 0 C2 10.56 2 21.12 2 32 C8.16261804 32.28897903 8.16261804 32.28897903 14.32568359 32.56811523 C15.09219238 32.60622314 15.85870117 32.64433105 16.6484375 32.68359375 C17.43395996 32.72025146 18.21948242 32.75690918 19.02880859 32.79467773 C21 33 21 33 23 34 C21.07829634 40.84606929 17.45648737 45.48711571 12 50 C8.66178781 51.28713313 5.5655146 51.83623941 2 52 C1.95101563 52.63808594 1.90203125 53.27617188 1.8515625 53.93359375 C1.77679687 54.75988281 1.70203125 55.58617187 1.625 56.4375 C1.55539063 57.26121094 1.48578125 58.08492187 1.4140625 58.93359375 C1.20910156 59.95646484 1.20910156 59.95646484 1 61 C0.01 61.495 0.01 61.495 -1 62 C-1.05395478 60.37536158 -1.09277195 58.75021459 -1.125 57.125 C-1.15980469 55.76761719 -1.15980469 55.76761719 -1.1953125 54.3828125 C-1 52 -1 52 1 50 C2.42267364 49.51645867 3.86329463 49.0845092 5.3125 48.6875 C12.58863096 46.34374628 15.57422678 41.47090498 19 35 C17.96359375 35.02320313 16.9271875 35.04640625 15.859375 35.0703125 C14.48959056 35.08907667 13.1197983 35.10727618 11.75 35.125 C11.06808594 35.14175781 10.38617188 35.15851563 9.68359375 35.17578125 C2.59095795 35.24464179 2.59095795 35.24464179 0 33 C-0.87558826 28.9783775 -1.12819511 25.12246261 -1.1328125 21.015625 C-1.13410156 19.91605469 -1.13539062 18.81648438 -1.13671875 17.68359375 C-1.13285156 16.55050781 -1.12898438 15.41742188 -1.125 14.25 C-1.12886719 13.10144531 -1.13273437 11.95289062 -1.13671875 10.76953125 C-1.13542969 9.67511719 -1.13414063 8.58070312 -1.1328125 7.453125 C-1.13168457 6.45442383 -1.13055664 5.45572266 -1.12939453 4.42675781 C-1 2 -1 2 0 0 Z " fill="#36E3AA" transform="translate(19,66)"/>
<path d="M0 0 C3.62011046 2.33296007 5.89022378 4.96794755 7.8125 8.8125 C8.39075746 13.55231526 8.28510429 16.93247823 6 21.1875 C5.278125 22.05375 4.55625 22.92 3.8125 23.8125 C3.338125 24.39 2.86375 24.9675 2.375 25.5625 C-1.09895692 28.34166553 -3.66712554 28.82075991 -8.125 28.75 C-12.57331529 28.0281979 -15.06479912 26.08044278 -18.1875 22.8125 C-21.20995131 18.5225691 -21.66801617 15.1246175 -20.8984375 10.0625 C-19.45153143 5.4832808 -16.29993264 2.05754871 -12.19921875 -0.359375 C-7.97145922 -2.09973426 -4.19032883 -1.5611029 0 0 Z M-11.1875 3.8125 C-12.51543606 5.87950655 -12.51543606 5.87950655 -13.1875 7.8125 C-14.1775 7.4825 -15.1675 7.1525 -16.1875 6.8125 C-17.06307031 13.35561329 -17.5423854 18.57897981 -15.1875 24.8125 C-13.8675 24.8125 -12.5475 24.8125 -11.1875 24.8125 C-11.1875 25.4725 -11.1875 26.1325 -11.1875 26.8125 C-4.16446603 27.21335995 -4.16446603 27.21335995 1.8125 23.8125 C4.45005339 20.67595003 5.68724626 18.55010538 6.375 14.5 C5.6211157 9.55786962 4.06874094 5.64817228 0.8125 1.8125 C-4.15184902 0.03951821 -7.12865057 0.44945333 -11.1875 3.8125 Z " fill="#32E2AD" transform="translate(874.1875,174.1875)"/>
<path d="M0 0 C4.42245767 3.73431592 6.7524722 7.4257109 7.3125 13.25 C6.94735052 17.63179373 5.88506316 20.71783545 3 24 C-0.74436247 26.89111173 -4.36747128 28.36456159 -9.125 28 C-14.34432932 26.9643374 -17.8634916 24.66687898 -20.875 20.25 C-22.23736109 16.31429019 -22.74067674 13.11487079 -22 9 C-19.56721149 4.31462953 -16.28370282 0.11046382 -11.1171875 -1.63671875 C-7.18093644 -2.31212714 -3.6623464 -1.51436123 0 0 Z M-19 8 C-20.23740871 11.71222612 -20.55756126 15.14227882 -20 19 C-17.93228896 22.27981751 -16.22880989 23.84746007 -13 26 C-10.85209071 26.31600189 -10.85209071 26.31600189 -8.5625 26.25 C-7.80066406 26.25515625 -7.03882813 26.2603125 -6.25390625 26.265625 C-3.78556982 25.9747292 -2.142314 25.22975656 0 24 C0 23.34 0 22.68 0 22 C0.99 21.67 1.98 21.34 3 21 C3 20.01 3 19.02 3 18 C3.66 18 4.32 18 5 18 C4.73404647 9.91599723 4.73404647 9.91599723 1 3 C-6.64668899 -1.22580181 -13.58034955 1.57671058 -19 8 Z " fill="#36D5A3" transform="translate(624,68)"/>
<path d="M0 0 C0.33 0 0.66 0 1 0 C1.7591914 5.97863225 2.45790557 11.96642069 2 18 C1 19 1 19 -2.60571289 19.08007812 C-4.20722928 19.06775149 -5.80871608 19.05115179 -7.41015625 19.03125 C-14.00666724 18.98927188 -20.58975831 19.02112424 -27.18359375 19.21875 C-27.93602859 19.24098633 -28.68846344 19.26322266 -29.46369934 19.28613281 C-31.00205504 19.33249397 -32.54039038 19.37953573 -34.07870483 19.42724609 C-47.9620479 19.85545938 -61.82005494 20.10919906 -75.71069336 19.96289062 C-76.76909424 19.95451172 -77.82749512 19.94613281 -78.91796875 19.9375 C-79.83344482 19.92589844 -80.7489209 19.91429687 -81.69213867 19.90234375 C-84.16134361 19.900538 -84.16134361 19.900538 -87 21 C-87.33 20.01 -87.66 19.02 -88 18 C-87.28225403 17.98969254 -86.56450806 17.97938507 -85.82501221 17.96876526 C-79.05675462 17.87073617 -72.28857835 17.76821404 -65.52046585 17.66066074 C-62.04101916 17.60552632 -58.56156393 17.55212175 -55.08203125 17.50268555 C-51.08063803 17.44575876 -47.07939731 17.38128113 -43.078125 17.31640625 C-41.83009094 17.29969376 -40.58205688 17.28298126 -39.29620361 17.26576233 C-37.55485138 17.2358445 -37.55485138 17.2358445 -35.77832031 17.20532227 C-34.24609833 17.18200584 -34.24609833 17.18200584 -32.68292236 17.15821838 C-30.29431156 17.01735626 -28.29502803 16.62647937 -26 16 C-24.0482673 15.91940003 -22.09399582 15.89237757 -20.140625 15.90234375 C-19.02558594 15.90556641 -17.91054687 15.90878906 -16.76171875 15.91210938 C-15.60285156 15.92048828 -14.44398437 15.92886719 -13.25 15.9375 C-12.07566406 15.94201172 -10.90132813 15.94652344 -9.69140625 15.95117188 C-6.79421928 15.96294906 -3.89713546 15.97939674 -1 16 C-0.21357457 12.30733801 0.10805593 8.96864193 0.0625 5.1875 C0.05347656 4.21167969 0.04445313 3.23585937 0.03515625 2.23046875 C0.02355469 1.49441406 0.01195313 0.75835937 0 0 Z " fill="#1EF7A2" transform="translate(118,125)"/>
<path d="M0 0 C2 2 2 2 2.24723816 4.88642883 C2.24581314 6.12184921 2.24438812 7.35726959 2.24291992 8.63012695 C2.24481827 9.31179428 2.24671661 9.99346161 2.24867249 10.69578552 C2.25238979 12.96006623 2.24165098 15.22402875 2.23046875 17.48828125 C2.22927586 19.06853701 2.22882402 20.64879349 2.2290802 22.22904968 C2.22751295 25.55224002 2.21921404 28.87532302 2.20581055 32.19848633 C2.18897276 36.42335874 2.18499189 40.64811147 2.18575573 44.8730135 C2.18548114 48.14447641 2.17995173 51.41591401 2.17275429 54.68736839 C2.16960555 56.24242143 2.16760926 57.7974773 2.16686058 59.35253334 C2.14016878 85.85983122 2.14016878 85.85983122 0 88 C-2.86267567 88.07325168 -5.700719 88.09238205 -8.5625 88.0625 C-9.36880859 88.05798828 -10.17511719 88.05347656 -11.00585938 88.04882812 C-13.00393756 88.03700518 -15.00197783 88.01906914 -17 88 C-17 83.05 -17 78.1 -17 73 C-14.54056705 77.9188659 -14.84067664 80.58300589 -15 86 C-8.07 86.495 -8.07 86.495 -1 87 C-1.00523682 84.71980957 -1.01047363 82.43961914 -1.01586914 80.09033203 C-1.03249554 72.52671338 -1.04350735 64.96309388 -1.05181217 57.39946175 C-1.05701381 52.81707918 -1.06406168 48.23471547 -1.07543945 43.65234375 C-1.08636546 39.22382295 -1.09229728 34.7953202 -1.09487724 30.36678696 C-1.09671408 28.68365063 -1.10030071 27.0005152 -1.10573006 25.31738663 C-1.13203274 16.8195696 -1.07349371 8.44679828 0 0 Z " fill="#EAF2FA" transform="translate(386,114)"/>
<path d="M0 0 C1.55859741 -0.002062 1.55859741 -0.002062 3.14868164 -0.00416565 C4.28803665 -0.00057037 5.42739166 0.0030249 6.60127258 0.00672913 C8.40146347 0.00651009 8.40146347 0.00651009 10.23802185 0.00628662 C13.5290861 0.00686431 16.82008779 0.01188297 20.11114097 0.01886058 C23.55046133 0.02510772 26.98978251 0.02569899 30.42910767 0.02688599 C36.94201219 0.02999528 43.45489996 0.03820327 49.9677971 0.04823548 C57.38247539 0.05940907 64.79715447 0.06491021 72.21183908 0.06993091 C87.4644627 0.08038621 102.71706958 0.09797789 117.96968079 0.12025452 C117.96968079 0.45025452 117.96968079 0.78025452 117.96968079 1.12025452 C56.58968079 1.61525452 56.58968079 1.61525452 -6.03031921 2.12025452 C-6.03031921 7.07025452 -6.03031921 12.02025452 -6.03031921 17.12025452 C-4.38031921 17.12025452 -2.73031921 17.12025452 -1.03031921 17.12025452 C-1.69031921 17.78025452 -2.35031921 18.44025452 -3.03031921 19.12025452 C-7.58587477 18.56469896 -7.58587477 18.56469896 -9.03031921 17.12025452 C-8.93940321 14.41916947 -8.79291155 11.75095141 -8.59281921 9.05775452 C-8.54061218 8.29914124 -8.48840515 7.54052795 -8.43461609 6.75892639 C-8.30456087 4.87903729 -8.16803884 2.99959767 -8.03031921 1.12025452 C-5.04929769 0.12658068 -3.11048146 -0.00317073 0 0 Z " fill="#3CCE9E" transform="translate(35.03031921386719,72.87974548339844)"/>
<path d="M0 0 C1.32 0.33 2.64 0.66 4 1 C4 3.31 4 5.62 4 8 C2.3603125 8.8353125 2.3603125 8.8353125 0.6875 9.6875 C-2.75283076 11.64552392 -4.11490144 13.48686178 -6 17 C-10.34782609 21.7826087 -10.34782609 21.7826087 -14 23 C-13.86015045 26.37527556 -13.71204731 29.75014131 -13.5625 33.125 C-13.52318359 34.07632813 -13.48386719 35.02765625 -13.44335938 36.0078125 C-13.22946977 40.74628987 -12.93438179 45.33594301 -12 50 C-12.99 49.67 -13.98 49.34 -15 49 C-16.09525672 42.74643742 -16.2181003 36.59006615 -16.25 30.25 C-16.270625 29.20972656 -16.29125 28.16945312 -16.3125 27.09765625 C-16.32023437 25.60298828 -16.32023437 25.60298828 -16.328125 24.078125 C-16.3374707 23.17481445 -16.34681641 22.27150391 -16.35644531 21.34082031 C-15.92831985 18.52926764 -15.1845016 17.74945817 -13 16 C-12.319375 15.443125 -11.63875 14.88625 -10.9375 14.3125 C-9 13 -9 13 -7 13 C-7 12.34 -7 11.68 -7 11 C-6.34 11 -5.68 11 -5 11 C-5 10.34 -5 9.68 -5 9 C-4.34 9 -3.68 9 -3 9 C-2.731875 8.4225 -2.46375 7.845 -2.1875 7.25 C-0.98280141 4.9674132 0.40798115 3.0262058 2 1 C1.34 0.67 0.68 0.34 0 0 Z " fill="#23F5B1" transform="translate(34,151)"/>
<path d="M0 0 C0.99 0 1.98 0 3 0 C3.20496094 0.62648437 3.40992188 1.25296875 3.62109375 1.8984375 C3.89050781 2.71570313 4.15992188 3.53296875 4.4375 4.375 C4.83775391 5.59316406 4.83775391 5.59316406 5.24609375 6.8359375 C5.95179729 9.01031799 5.95179729 9.01031799 7 11 C6.91188555 13.21138855 6.7570216 15.42042185 6.5625 17.625 C6.46066406 18.81351563 6.35882813 20.00203125 6.25390625 21.2265625 C6.17011719 22.14179688 6.08632812 23.05703125 6 24 C5.34 24 4.68 24 4 24 C4 25.32 4 26.64 4 28 C1.625 28.1875 1.625 28.1875 -1 28 C-1.66 27.01 -2.32 26.02 -3 25 C-2.67 24.34 -2.34 23.68 -2 23 C-2.99 22.67 -3.98 22.34 -5 22 C-3.35 21.67 -1.7 21.34 0 21 C-0.02320313 20.27554688 -0.04640625 19.55109375 -0.0703125 18.8046875 C-0.17018794 13.45421756 -0.16455748 9.00553918 2 4 C1.34 4 0.68 4 0 4 C0 2.68 0 1.36 0 0 Z " fill="#15F392" transform="translate(155,172)"/>
<path d="M0 0 C-0.75 6.75 -0.75 6.75 -3 9 C-2.67 6.69 -2.34 4.38 -2 2 C-42.59 2 -83.18 2 -125 2 C-125 1.67 -125 1.34 -125 1 C-109.14498865 0.86946678 -93.28997615 0.73907387 -77.43496227 0.60884857 C-70.07342156 0.54838121 -62.71188124 0.48786772 -55.3503418 0.42724609 C-48.93499062 0.37441636 -42.51963875 0.32167271 -36.10428602 0.26903296 C-32.7065544 0.2411506 -29.30882316 0.21322478 -25.91109276 0.18519592 C-22.12066107 0.15394918 -18.33022816 0.12285457 -14.53979492 0.09179688 C-13.40979065 0.08244614 -12.27978638 0.0730954 -11.11553955 0.0634613 C-10.08488876 0.05504715 -9.05423798 0.046633 -7.99235535 0.03796387 C-6.64699849 0.02690235 -6.64699849 0.02690235 -5.2744627 0.01561737 C-3.5163422 0.00354541 -1.75816194 0 0 0 Z " fill="#40D8A9" transform="translate(155,174)"/>
<path d="M0 0 C0.33 0.99 0.66 1.98 1 3 C21.46 3 41.92 3 63 3 C60.35549741 5.64450259 59.08319955 5.28166942 55.38867188 5.35058594 C54.21405396 5.37691101 53.03943604 5.40323608 51.82922363 5.43035889 C50.55526733 5.4481842 49.28131104 5.46600952 47.96875 5.484375 C46.66675659 5.5084845 45.36476318 5.53259399 44.02331543 5.55743408 C41.26609461 5.60737321 38.50887754 5.6501552 35.75146484 5.68798828 C32.21349374 5.73713101 28.67613308 5.80424024 25.13857269 5.87673569 C21.76960788 5.94327142 18.40046333 5.99438903 15.03125 6.046875 C13.12031555 6.08575836 13.12031555 6.08575836 11.17077637 6.12542725 C9.99615845 6.13914368 8.82154053 6.15286011 7.61132812 6.16699219 C6.05484558 6.19125275 6.05484558 6.19125275 4.46691895 6.21600342 C2 6 2 6 0 4 C0 2.68 0 1.36 0 0 Z " fill="#40D9A7" transform="translate(27,138)"/>
<path d="M0 0 C0.33 0 0.66 0 1 0 C1.02779013 1.47905232 1.04673956 2.95827058 1.0625 4.4375 C1.07410156 5.26121094 1.08570313 6.08492188 1.09765625 6.93359375 C0.96909904 10.97029023 0.44600456 14.98595897 0 19 C-41.58 19.495 -41.58 19.495 -84 20 C-83.67 19.34 -83.34 18.68 -83 18 C-55.94 18 -28.88 18 -1 18 C-1.99 16.515 -1.99 16.515 -3 15 C-3.495 14.01 -3.495 14.01 -4 13 C-3.34 13 -2.68 13 -2 13 C-2.495 11.02 -2.495 11.02 -3 9 C-2.34 9 -1.68 9 -1 9 C-0.67 6.03 -0.34 3.06 0 0 Z " fill="#22F5A5" transform="translate(160,80)"/>
<path d="M0 0 C29.205 0.495 29.205 0.495 59 1 C58.67 1.66 58.34 2.32 58 3 C57.23445801 2.99476318 56.46891602 2.98952637 55.68017578 2.98413086 C52.16179243 2.96315333 48.64342232 2.95027435 45.125 2.9375 C43.92101562 2.92912109 42.71703125 2.92074219 41.4765625 2.91210938 C35.36224086 2.89549437 29.39690067 3.06779961 23.32324219 3.76635742 C19.4052444 4.16038053 15.49726191 4.18416828 11.5625 4.1875 C10.77423828 4.19974609 9.98597656 4.21199219 9.17382812 4.22460938 C5.25960626 4.23460313 3.32990866 4.2199391 0 2 C0 1.34 0 0.68 0 0 Z " fill="#18FAA3" transform="translate(65,116)"/>
<path d="M0 0 C-0.78375 0.4125 -1.5675 0.825 -2.375 1.25 C-5.05891656 3.0392777 -5.88098949 4.04988139 -7 7 C-7.33 6.34 -7.66 5.68 -8 5 C-8.66 5 -9.32 5 -10 5 C-10.09945415 11.11090483 -10.0712828 16.97403427 -9 23 C-12.55487922 20.17432678 -14.34450131 18.0229049 -15 13.5625 C-15.22270888 9.23763725 -14.70215757 6.5209932 -12 3 C-7.97123051 0.18327557 -4.84658107 -1.65889688 0 0 Z " fill="#1BEB9C" transform="translate(868,176)"/>
<path d="M0 0 C0.66 0.66 1.32 1.32 2 2 C-0.31 4.64 -2.62 7.28 -5 10 C-1.77003365 13.22996635 10.21578655 11.98738953 14.88671875 12.0625 C17.9252046 12.0625 20.96189193 12.04610957 24 12 C20.53426961 14.12051434 17.79741792 14.24553431 13.7734375 14.23046875 C12.5771875 14.22853516 11.3809375 14.22660156 10.1484375 14.22460938 C8.28058594 14.20624023 8.28058594 14.20624023 6.375 14.1875 C5.12203125 14.18685547 3.8690625 14.18621094 2.578125 14.18554688 C-6.7192697 14.14036515 -6.7192697 14.14036515 -9 13 C-9 11.68 -9 10.36 -9 9 C-8.01 9 -7.02 9 -6 9 C-5.71125 8.4225 -5.4225 7.845 -5.125 7.25 C-4.568125 6.13625 -4.568125 6.13625 -4 5 C-3.67 4.278125 -3.34 3.55625 -3 2.8125 C-2 1 -2 1 0 0 Z " fill="#36E79D" transform="translate(69,154)"/>
<path d="M0 0 C3 2 3 2 3.51171875 4.109375 C4.02006428 11.74585451 4.10054298 19.34756226 4 27 C3.01 27.33 2.02 27.66 1 28 C1 29.65 1 31.3 1 33 C0.67 33 0.34 33 0 33 C-0.09619509 27.97647855 -0.06260651 23.10812479 0.625 18.125 C1.22807776 12.99883908 0.40019919 8.40097727 -0.625 3.37109375 C-0.74875 2.58863281 -0.8725 1.80617188 -1 1 C-0.67 0.67 -0.34 0.34 0 0 Z " fill="#30EBA9" transform="translate(160,65)"/>
<path d="M0 0 C0 0.33 0 0.66 0 1 C-17.16 1.33 -34.32 1.66 -52 2 C-52 7.28 -52 12.56 -52 18 C-52.33 18 -52.66 18 -53 18 C-53.33 12.06 -53.66 6.12 -54 0 C-15.93617021 -1.38297872 -15.93617021 -1.38297872 0 0 Z " fill="#1EF1AC" transform="translate(80,174)"/>
<path d="M0 0 C0.33 0 0.66 0 1 0 C1.45647158 5.70589472 0.69917584 8.60098008 -3 13 C-7.2395515 16.53295958 -10.71438056 16.26876031 -16 16 C-16 15.34 -16 14.68 -16 14 C-17.32 14 -18.64 14 -20 14 C-20.33 12.02 -20.66 10.04 -21 8 C-20.0925 8.639375 -19.185 9.27875 -18.25 9.9375 C-14.83731195 12.26993539 -14.83731195 12.26993539 -11 13 C-5.84939497 11.17582738 -3.61210303 8.74048327 -1 4 C-0.23060319 1.77397385 -0.23060319 1.77397385 0 0 Z " fill="#1AF8AB" transform="translate(879,185)"/>
<path d="M0 0 C0.33 0.99 0.66 1.98 1 3 C-0.98 3.99 -0.98 3.99 -3 5 C-3.02915731 9.04165139 -3.04685173 13.0832755 -3.0625 17.125 C-3.07087891 18.26710937 -3.07925781 19.40921875 -3.08789062 20.5859375 C-3.09111328 21.69453125 -3.09433594 22.803125 -3.09765625 23.9453125 C-3.10551147 25.46922607 -3.10551147 25.46922607 -3.11352539 27.02392578 C-2.99652309 30.09114726 -2.56776417 32.98633134 -2 36 C-2.99 35.67 -3.98 35.34 -5 35 C-6.09525672 28.74643742 -6.2181003 22.59006615 -6.25 16.25 C-6.270625 15.20972656 -6.29125 14.16945312 -6.3125 13.09765625 C-6.32023437 11.60298828 -6.32023437 11.60298828 -6.328125 10.078125 C-6.3374707 9.17481445 -6.34681641 8.27150391 -6.35644531 7.34082031 C-5.92534621 4.50973937 -5.22207246 3.74303165 -3 2 C-2.01 1.34 -1.02 0.68 0 0 Z " fill="#3FE6AB" transform="translate(24,165)"/>
<path d="M0 0 C0.66 0 1.32 0 2 0 C5.23102587 6.46205175 4.09222194 16.44746085 4.25 23.5625 C4.27578125 24.67753906 4.3015625 25.79257813 4.328125 26.94140625 C3.96204555 30.3537897 2.96461219 32.22369277 1 35 C-0.21038106 31.36885681 0.13462915 28.30343506 0.4375 24.5625 C1.65635904 12.17485464 1.65635904 12.17485464 0 0 Z " fill="#4ADFB0" transform="translate(160,167)"/>
<path d="M0 0 C0.33 0 0.66 0 1 0 C1.495 3.465 1.495 3.465 2 7 C-2.70969596 9.4174452 -6.984854 9.24249604 -12.140625 9.16015625 C-13.02224304 9.15495468 -13.90386108 9.14975311 -14.81219482 9.14439392 C-17.62496665 9.12663268 -20.43736902 9.09550758 -23.25 9.0625 C-26.04831375 9.03472457 -28.84656866 9.0099813 -31.6449585 8.99131775 C-33.38251549 8.97923299 -35.12004694 8.96180676 -36.85748291 8.93800354 C-42.321598 8.89362018 -47.57853991 9.30651792 -53 10 C-53 9.34 -53 8.68 -53 8 C-47.14435672 7.01056178 -41.40461663 6.78814847 -35.47265625 6.68359375 C-34.48373886 6.66281265 -33.49482147 6.64203156 -32.47593689 6.62062073 C-29.33819062 6.55559446 -26.20036554 6.49645982 -23.0625 6.4375 C-20.92642437 6.39427009 -18.7903565 6.35065442 -16.65429688 6.30664062 C-11.43627957 6.19996162 -6.21818506 6.09811087 -1 6 C-0.67 4.02 -0.34 2.04 0 0 Z " fill="#E9F5FC" transform="translate(571,140)"/>
<path d="M0 0 C0.495 1.485 0.495 1.485 1 3 C-0.88907932 4.88907932 -4.16363585 4.24324981 -6.68359375 4.31640625 C-7.70832291 4.34744194 -7.70832291 4.34744194 -8.75375366 4.37910461 C-10.22050365 4.422453 -11.68732694 4.46337502 -13.15420532 4.50213623 C-15.43264451 4.56237163 -17.71079863 4.62961249 -19.98901367 4.69775391 C-28.63407665 4.94566855 -37.27599574 5.14662924 -45.92163086 4.78735352 C-49.03443908 4.71375997 -50.76128882 4.85304224 -53.44921875 6.5078125 C-53.96097656 7.00023437 -54.47273438 7.49265625 -55 8 C-54.34 6.35 -53.68 4.7 -53 3 C-52.36550934 2.99191315 -51.73101868 2.98382629 -51.07730103 2.97549438 C-44.49142936 2.88963817 -37.90586529 2.79014361 -31.3203125 2.68261719 C-28.86040398 2.64426238 -26.40043813 2.60942116 -23.94042969 2.578125 C-20.41059837 2.53261549 -16.88116405 2.47459802 -13.3515625 2.4140625 C-12.24632233 2.40251129 -11.14108215 2.39096008 -10.00234985 2.37905884 C-8.98144257 2.35918915 -7.96053528 2.33931946 -6.90869141 2.31884766 C-6.00712311 2.30552399 -5.10555481 2.29220032 -4.17666626 2.2784729 C-1.79101999 2.19879158 -1.79101999 2.19879158 0 0 Z " fill="#45D0A5" transform="translate(126,147)"/>
<path d="M0 0 C0.66 0 1.32 0 2 0 C2.33 6.6 2.66 13.2 3 20 C5.64 20 8.28 20 11 20 C14 20.5 14 20.5 16 21 C16 21.33 16 21.66 16 22 C13.87527424 22.05386629 11.75016348 22.09273071 9.625 22.125 C8.44164062 22.14820313 7.25828125 22.17140625 6.0390625 22.1953125 C3 22 3 22 1 20 C-0.46098971 13.42554633 -0.09068282 6.70045285 0 0 Z " fill="#44DFAB" transform="translate(18,129)"/>
<path d="M0 0 C6.94170022 -0.05058729 13.88335315 -0.08568579 20.82519531 -0.10986328 C23.18816911 -0.11993924 25.55113039 -0.13360029 27.9140625 -0.15087891 C31.30471888 -0.17505724 34.69521084 -0.18646699 38.0859375 -0.1953125 C39.14743011 -0.20563507 40.20892273 -0.21595764 41.30258179 -0.22659302 C42.77388046 -0.22681961 42.77388046 -0.22681961 44.27490234 -0.22705078 C45.14094086 -0.231492 46.00697937 -0.23593323 46.89926147 -0.24050903 C49 0 49 0 51 2 C51.125 5.125 51.125 5.125 51 8 C50.34 7.67 49.68 7.34 49 7 C48.505 4.03 48.505 4.03 48 1 C32.16 1 16.32 1 0 1 C0 0.67 0 0.34 0 0 Z " fill="#4BD7B0" transform="translate(76,115)"/>
<path d="M0 0 C0.33 0 0.66 0 1 0 C1.33 4.95 1.66 9.9 2 15 C2.99 15 3.98 15 5 15 C4.97679687 14.08476562 4.95359375 13.16953125 4.9296875 12.2265625 C4.90261719 10.44378906 4.90261719 10.44378906 4.875 8.625 C4.85179687 7.44164062 4.82859375 6.25828125 4.8046875 5.0390625 C5 2 5 2 7 0 C7.10812003 2.75105422 7.18734945 5.49785087 7.25 8.25 C7.30027344 9.41595703 7.30027344 9.41595703 7.3515625 10.60546875 C7.45154648 16.45453185 7.45154648 16.45453185 5.046875 19.359375 C4.37140625 19.90078125 3.6959375 20.4421875 3 21 C2.67 21.99 2.34 22.98 2 24 C1.67 24 1.34 24 1 24 C-0.03026944 17.30324864 -0.10152799 10.7685324 0 4 C-0.66 3.67 -1.32 3.34 -2 3 C-1.34 2.01 -0.68 1.02 0 0 Z " fill="#22F29C" transform="translate(20,125)"/>
<path d="M0 0 C0.5775 0.226875 1.155 0.45375 1.75 0.6875 C1.09 1.3475 0.43 2.0075 -0.25 2.6875 C-1.24 2.6875 -2.23 2.6875 -3.25 2.6875 C-7.20368796 6.05976326 -8.12187405 8.36353182 -8.625 13.5625 C-8.6050871 17.17337194 -8.32575385 17.59814931 -5.8125 20.5625 C-4.966875 21.26375 -4.12125 21.965 -3.25 22.6875 C-2.92 23.3475 -2.59 24.0075 -2.25 24.6875 C-6.02693404 23.74326649 -7.2050033 22.74830636 -9.5625 19.5625 C-11.6935184 15.37033266 -11.92642442 12.34731267 -11.25 7.6875 C-9 4.875 -9 4.875 -6.25 2.6875 C-5.2290625 1.759375 -5.2290625 1.759375 -4.1875 0.8125 C-2.25 -0.3125 -2.25 -0.3125 0 0 Z " fill="#34E6AC" transform="translate(613.25,69.3125)"/>
<path d="M0 0 C0.66 0 1.32 0 2 0 C2.05786668 3.79160297 2.09355054 7.58309311 2.125 11.375 C2.14175781 12.45523438 2.15851563 13.53546875 2.17578125 14.6484375 C2.18222656 15.6796875 2.18867187 16.7109375 2.1953125 17.7734375 C2.20578613 18.72653809 2.21625977 19.67963867 2.22705078 20.66162109 C2 23 2 23 0 25 C-0.99 24.67 -1.98 24.34 -3 24 C-2.67854004 23.43829102 -2.35708008 22.87658203 -2.02587891 22.29785156 C-0.90241943 19.78143067 -0.69140607 17.97655795 -0.5859375 15.234375 C-0.54726562 14.34492188 -0.50859375 13.45546875 -0.46875 12.5390625 C-0.4378125 11.61867187 -0.406875 10.69828125 -0.375 9.75 C-0.33632812 8.81414062 -0.29765625 7.87828125 -0.2578125 6.9140625 C-0.16375156 4.60956946 -0.07810601 2.30507987 0 0 Z " fill="#15FB9F" transform="translate(123,124)"/>
<path d="M0 0 C0.33 0 0.66 0 1 0 C1 3.63 1 7.26 1 11 C5.62 11 10.24 11 15 11 C14.938125 8.834375 14.938125 8.834375 14.875 6.625 C14.8046875 4.1640625 14.8046875 4.1640625 15 2 C15.66 1.34 16.32 0.68 17 0 C16.67 3.96 16.34 7.92 16 12 C13.35448944 12.19386492 10.70882217 12.38038267 8.0625 12.5625 C7.30775391 12.61857422 6.55300781 12.67464844 5.77539062 12.73242188 C3.85254042 12.86176157 1.92610452 12.93516912 0 13 C-1 12 -1 12 -1.1328125 9.53125 C-1.13023437 8.5309375 -1.12765625 7.530625 -1.125 6.5 C-1.12757813 5.4996875 -1.13015625 4.499375 -1.1328125 3.46875 C-1 1 -1 1 0 0 Z " fill="#ECF6FB" transform="translate(499,128)"/>
<path d="M0 0 C0.33 0 0.66 0 1 0 C1.7591914 5.97863225 2.45790557 11.96642069 2 18 C0.19253866 19.80746134 -2.50445781 19.17303483 -4.9375 19.1875 C-6.01902344 19.20167969 -7.10054688 19.21585938 -8.21484375 19.23046875 C-11 19 -11 19 -13 17 C-9.04 16.67 -5.08 16.34 -1 16 C-0.21700392 12.0850196 0.10965159 9.10108218 0.0625 5.1875 C0.05347656 4.21167969 0.04445313 3.23585937 0.03515625 2.23046875 C0.02355469 1.49441406 0.01195313 0.75835937 0 0 Z " fill="#25E89B" transform="translate(118,125)"/>
<path d="M0 0 C0.66 0 1.32 0 2 0 C2 4.62 2 9.24 2 14 C1.34 14 0.68 14 0 14 C0 17.63 0 21.26 0 25 C-0.33 25 -0.66 25 -1 25 C-1.0289337 21.20834926 -1.04677601 17.41672673 -1.0625 13.625 C-1.07087891 12.54476562 -1.07925781 11.46453125 -1.08789062 10.3515625 C-1.09111328 9.3203125 -1.09433594 8.2890625 -1.09765625 7.2265625 C-1.10289307 6.27346191 -1.10812988 5.32036133 -1.11352539 4.33837891 C-1 2 -1 2 0 0 Z " fill="#3EE1A4" transform="translate(19,66)"/>
<path d="M0 0 C0.66 0 1.32 0 2 0 C2 1.98 2 3.96 2 6 C1.34 6 0.68 6 0 6 C0.33 9.96 0.66 13.92 1 18 C-2.96 18 -6.92 18 -11 18 C-11 17.67 -11 17.34 -11 17 C-7.04 16.505 -7.04 16.505 -3 16 C-3.03480469 15.43152344 -3.06960937 14.86304688 -3.10546875 14.27734375 C-3.30230592 8.66279774 -2.55495317 5.00344995 0 0 Z " fill="#25E195" transform="translate(155,176)"/>
<path d="M0 0 C3.64969348 1.47391468 6.4277887 2.99908681 9 6 C8.67 6.66 8.34 7.32 8 8 C7.195625 7.175 6.39125 6.35 5.5625 5.5 C2.16323934 2.66459775 -0.54375577 2.39464466 -4.8828125 2.62109375 C-7.69343458 3.12410176 -9.67810777 4.38171147 -12 6 C-12.66 5.67 -13.32 5.34 -14 5 C-8.93059372 0.86443172 -6.67147725 -0.44476515 0 0 Z " fill="#41CCA6" transform="translate(871,173)"/>
<path d="M0 0 C0.89203125 0.01804687 1.7840625 0.03609375 2.703125 0.0546875 C3.71632813 0.08949219 3.71632813 0.08949219 4.75 0.125 C5.08 0.785 5.41 1.445 5.75 2.125 C4.57244141 2.0940625 4.57244141 2.0940625 3.37109375 2.0625 C-3.05805508 2.10080796 -3.05805508 2.10080796 -8.60546875 4.97265625 C-10.3016876 6.95565849 -11.83325227 8.93502727 -13.25 11.125 C-13.58 10.135 -13.91 9.145 -14.25 8.125 C-10.1958853 2.44923942 -7.21914998 -0.18997763 0 0 Z " fill="#47ECB5" transform="translate(83.25,98.875)"/>
<path d="M0 0 C0.66 0.66 1.32 1.32 2 2 C-0.31 4.64 -2.62 7.28 -5 10 C-3.18884044 11.81115956 -0.38721773 11.38199448 2.0625 11.5625 C3.16722656 11.64628906 4.27195312 11.73007813 5.41015625 11.81640625 C6.69212891 11.90728516 6.69212891 11.90728516 8 12 C8 12.33 8 12.66 8 13 C5.89611431 13.05402274 3.79183286 13.09280256 1.6875 13.125 C-0.07013672 13.15980469 -0.07013672 13.15980469 -1.86328125 13.1953125 C-5 13 -5 13 -8 11 C-7.04801289 9.35048774 -6.08820855 7.70548492 -5.125 6.0625 C-4.59132813 5.14597656 -4.05765625 4.22945312 -3.5078125 3.28515625 C-2 1 -2 1 0 0 Z " fill="#46DA9F" transform="translate(69,154)"/>
<path d="M0 0 C5.28 0 10.56 0 16 0 C16 2.97 16 5.94 16 9 C15.34 8.34 14.68 7.68 14 7 C14.375 3.875 14.375 3.875 15 1 C12.87249844 1.22773256 10.74791944 1.48290818 8.625 1.75 C7.44164062 1.88921875 6.25828125 2.0284375 5.0390625 2.171875 C1.8911392 2.67611298 1.8911392 2.67611298 0.5859375 5.078125 C0.39257812 5.71234375 0.19921875 6.3465625 0 7 C-1 5 -1 5 0 0 Z " fill="#ECF9FE" transform="translate(475,162)"/>
<path d="M0 0 C0.99 1.32 1.98 2.64 3 4 C3.33 4 3.66 4 4 4 C4.2396943 9.63281599 3.38529821 14.54538831 2 20 C1.67 20 1.34 20 1 20 C0.67 13.4 0.34 6.8 0 0 Z " fill="#22F2B6" transform="translate(124,118)"/>
<path d="M0 0 C0.66 0 1.32 0 2 0 C2 5.94 2 11.88 2 18 C1.34 18 0.68 18 0 18 C-0.19430855 15.3753399 -0.38073238 12.75053235 -0.5625 10.125 C-0.61857422 9.37863281 -0.67464844 8.63226563 -0.73242188 7.86328125 C-1.11328125 2.2265625 -1.11328125 2.2265625 0 0 Z " fill="#32D59B" transform="translate(153,74)"/>
<path d="M0 0 C4.62 0 9.24 0 14 0 C14 0.33 14 0.66 14 1 C8.06 1.495 8.06 1.495 2 2 C2 7.28 2 12.56 2 18 C1.67 18 1.34 18 1 18 C0.67 12.06 0.34 6.12 0 0 Z " fill="#37F4AB" transform="translate(26,174)"/>
<path d="M0 0 C0.33 0 0.66 0 1 0 C1.33 5.28 1.66 10.56 2 16 C3.65 16 5.3 16 7 16 C6.34 16.66 5.68 17.32 5 18 C0.44444444 17.44444444 0.44444444 17.44444444 -1 16 C-0.909084 13.29891496 -0.76259234 10.63069689 -0.5625 7.9375 C-0.51029297 7.17888672 -0.45808594 6.42027344 -0.40429688 5.63867188 C-0.27424165 3.75878278 -0.13771962 1.87934315 0 0 Z " fill="#3BE7A6" transform="translate(27,74)"/>
<path d="M0 0 C1 3 1 3 1 5 C0.34 5 -0.32 5 -1 5 C-0.71717874 12.13601646 -0.71717874 12.13601646 3 18 C2.67 18.66 2.34 19.32 2 20 C-1.69734188 16.30265812 -2.72787982 13.28756239 -3.1171875 8.2265625 C-2.94675108 4.98827055 -1.72749007 2.69488451 0 0 Z " fill="#47E8BA" transform="translate(856,179)"/>
<path d="M0 0 C2.4375 0.375 2.4375 0.375 5 1 C6.32229189 3.64458379 6.09677194 5.67761301 6.0625 8.625 C6.05347656 9.62789062 6.04445312 10.63078125 6.03515625 11.6640625 C6.02355469 12.43492187 6.01195312 13.20578125 6 14 C5.01 13.34 4.02 12.68 3 12 C2.78845654 9.39096401 3.00547752 6.92148882 3.1875 4.3125 C3.125625 3.549375 3.06375 2.78625 3 2 C2.01 1.34 1.02 0.68 0 0 Z " fill="#2BF0A1" transform="translate(156,168)"/>
<path d="M0 0 C1.65 0 3.3 0 5 0 C3.4422692 3.82352106 1.08404742 6.29205593 -2 9 C-2.99 9 -3.98 9 -5 9 C-4.6875 7.0625 -4.6875 7.0625 -4 5 C-3.01 4.67 -2.02 4.34 -1 4 C-0.26676204 1.98491642 -0.26676204 1.98491642 0 0 Z " fill="#1CF6A9" transform="translate(25,164)"/>
<path d="M0 0 C0.9075 0.639375 1.815 1.27875 2.75 1.9375 C6.16570571 4.20423335 6.16570571 4.20423335 10 5 C12.21771064 4.14209817 12.21771064 4.14209817 14 3 C13 6 13 6 11 7 C9.28766312 6.9129796 7.57824594 6.75902838 5.875 6.5625 C4.96492187 6.46066406 4.05484375 6.35882813 3.1171875 6.25390625 C2.41851563 6.17011719 1.71984375 6.08632812 1 6 C0.67 4.02 0.34 2.04 0 0 Z " fill="#10FBA7" transform="translate(858,193)"/>
<path d="M0 0 C3.106467 3.106467 3.69089782 6.83467488 5 11 C11.93 11.495 11.93 11.495 19 12 C19 12.33 19 12.66 19 13 C13.72 13 8.44 13 3 13 C1.71679541 8.50878395 0.66544441 4.54720345 0 0 Z " fill="#EBF2F8" transform="translate(472,131)"/>
<path d="M0 0 C0.99 0 1.98 0 3 0 C2.67 5.61 2.34 11.22 2 17 C-0.49118953 13.2632157 -0.2065226 11.25548181 -0.125 6.8125 C-0.10695313 5.54019531 -0.08890625 4.26789063 -0.0703125 2.95703125 C-0.04710938 1.98121094 -0.02390625 1.00539063 0 0 Z " fill="#4DE4AC" transform="translate(27,124)"/>
<path d="M0 0 C1.38294718 0.01329757 2.76582404 0.03715018 4.1484375 0.0703125 C4.85484375 0.07933594 5.56125 0.08835938 6.2890625 0.09765625 C8.03399848 0.12123647 9.77876045 0.15710789 11.5234375 0.1953125 C11.5234375 0.8553125 11.5234375 1.5153125 11.5234375 2.1953125 C12.1834375 2.5253125 12.8434375 2.8553125 13.5234375 3.1953125 C7.08273279 3.30186828 0.89702461 3.15736338 -5.4765625 2.1953125 C-3.4765625 0.1953125 -3.4765625 0.1953125 0 0 Z " fill="#20EEB1" transform="translate(93.4765625,140.8046875)"/>
<path d="M0 0 C0.33 0 0.66 0 1 0 C1.11269443 6.1105424 0.89604368 11.95170514 0 18 C-1.70840281 16.36587557 -2.93453047 15.13093906 -4 13 C-3.34 13 -2.68 13 -2 13 C-2.33 11.68 -2.66 10.36 -3 9 C-2.34 9 -1.68 9 -1 9 C-0.67 6.03 -0.34 3.06 0 0 Z " fill="#1AF497" transform="translate(160,80)"/>
<path d="M0 0 C1.485 0.99 1.485 0.99 3 2 C3.29296875 4.8203125 3.29296875 4.8203125 3.1875 8.125 C3.16042969 9.22070312 3.13335937 10.31640625 3.10546875 11.4453125 C3.07066406 12.28835937 3.03585938 13.13140625 3 14 C2.34 13.67 1.68 13.34 1 13 C0.33203125 10.3125 0.33203125 10.3125 -0.1875 7 C-0.36667969 5.906875 -0.54585937 4.81375 -0.73046875 3.6875 C-0.81941406 2.800625 -0.90835938 1.91375 -1 1 C-0.67 0.67 -0.34 0.34 0 0 Z " fill="#3FE1A7" transform="translate(160,65)"/>
<path d="M0 0 C0.99 0 1.98 0 3 0 C3 4.95 3 9.9 3 15 C1.35 15.33 -0.3 15.66 -2 16 C-1.505 15.360625 -1.01 14.72125 -0.5 14.0625 C1.48821064 10.00323661 1.45492186 6.45298509 1 2 C0.67 1.34 0.34 0.68 0 0 Z " fill="#ECFAFD" transform="translate(657,186)"/>
<path d="M0 0 C0.66 0.33 1.32 0.66 2 1 C3.00376838 5.0150735 3.40779739 7.16667491 1.5625 10.9375 C0.7890625 11.9584375 0.7890625 11.9584375 0 13 C-1.06671952 9.79984144 -0.94845472 8.11455706 -0.5625 4.8125 C-0.46066406 3.91144531 -0.35882813 3.01039063 -0.25390625 2.08203125 C-0.17011719 1.39496094 -0.08632812 0.70789063 0 0 Z " fill="#41ECAD" transform="translate(161,189)"/>
<path d="M0 0 C1.98 0.99 1.98 0.99 4 2 C4 2.66 4 3.32 4 4 C5.95927063 5.7143618 7.95880212 7.38405168 10 9 C9.01 9.33 8.02 9.66 7 10 C4.66666667 7.66666667 2.33333333 5.33333333 0 3 C0 2.01 0 1.02 0 0 Z " fill="#1EF3AA" transform="translate(604,84)"/>
<path d="M0 0 C0.33 0 0.66 0 1 0 C1.33 5.61 1.66 11.22 2 17 C1.01 16.34 0.02 15.68 -1 15 C-0.67 10.05 -0.34 5.1 0 0 Z " fill="#2EEDB3" transform="translate(19,80)"/>
<path d="M0 0 C0.66 0 1.32 0 2 0 C0.64978174 4.41889613 -1.26115668 6.34345343 -5 9 C-5.66 8.34 -6.32 7.68 -7 7 C-6.38125 6.938125 -5.7625 6.87625 -5.125 6.8125 C-2.73182415 6.17775641 -2.73182415 6.17775641 -1.8125 3.5 C-1.544375 2.675 -1.27625 1.85 -1 1 C-0.67 0.67 -0.34 0.34 0 0 Z " fill="#40E7BF" transform="translate(879,192)"/>
<path d="M0 0 C0.99 0.33 1.98 0.66 3 1 C2.67 1.99 2.34 2.98 2 4 C-0.64 4.33 -3.28 4.66 -6 5 C-5.01 4.67 -4.02 4.34 -3 4 C-2.67 3.01 -2.34 2.02 -2 1 C-1.34 0.67 -0.68 0.34 0 0 Z " fill="#11F8A9" transform="translate(621,89)"/>
<path d="M0 0 C2.02350324 3.03525486 2.32124018 4.19426202 2.625 7.6875 C2.69976563 8.49574219 2.77453125 9.30398437 2.8515625 10.13671875 C2.90054688 10.75160156 2.94953125 11.36648437 3 12 C0.89366282 10.29171079 0.06198392 9.47851584 -0.29296875 6.73828125 C-0.25816406 5.93777344 -0.22335937 5.13726562 -0.1875 4.3125 C-0.16042969 3.50425781 -0.13335938 2.69601563 -0.10546875 1.86328125 C-0.07066406 1.24839844 -0.03585937 0.63351563 0 0 Z " fill="#1EF3A6" transform="translate(855,184)"/>
<path d="M0 0 C0.99 0 1.98 0 3 0 C5.1519437 3.22791555 5.20086443 4.28400809 5 8 C2.5 5.6875 2.5 5.6875 0 3 C0 2.01 0 1.02 0 0 Z " fill="#08FB9C" transform="translate(873,178)"/>
<path d="M0 0 C0 0.33 0 0.66 0 1 C-1.546875 1.433125 -1.546875 1.433125 -3.125 1.875 C-6.45007997 2.82308798 -9.72751453 3.88256594 -13 5 C-8.7797731 -0.27528362 -6.38501231 -0.54110274 0 0 Z " fill="#29D09B" transform="translate(870,174)"/>
<path d="M0 0 C1.051875 0.433125 1.051875 0.433125 2.125 0.875 C5.05452503 2.02133588 8.00921653 3.02625654 11 4 C11 4.33 11 4.66 11 5 C9.54052295 4.93993922 8.08220728 4.8511311 6.625 4.75 C5.81289063 4.70359375 5.00078125 4.6571875 4.1640625 4.609375 C2 4 2 4 0.7109375 1.953125 C0.47632812 1.30859375 0.24171875 0.6640625 0 0 Z " fill="#51E8B1" transform="translate(18,96)"/>
<path d="M0 0 C0.66 1.32 1.32 2.64 2 4 C1.01 5.485 1.01 5.485 0 7 C0.33 7.66 0.66 8.32 1 9 C0.01 9 -0.98 9 -2 9 C-1.125 1.125 -1.125 1.125 0 0 Z " fill="#13FBA2" transform="translate(606,75)"/>
<path d="M0 0 C0.66 0.66 1.32 1.32 2 2 C-1.465 4.97 -1.465 4.97 -5 8 C-3.375 2.25 -3.375 2.25 0 0 Z " fill="#3EE6B4" transform="translate(69,154)"/>
<path d="M0 0 C3.375 -0.1875 3.375 -0.1875 7 0 C7.66 0.99 8.32 1.98 9 3 C5.7 2.67 2.4 2.34 -1 2 C-0.67 1.34 -0.34 0.68 0 0 Z " fill="#1DF69B" transform="translate(25,147)"/>
<path d="M0 0 C0.33 0.99 0.66 1.98 1 3 C0 4 0 4 -2.72265625 4.09765625 C-4.37587891 4.08025391 -4.37587891 4.08025391 -6.0625 4.0625 C-7.16722656 4.05347656 -8.27195312 4.04445312 -9.41015625 4.03515625 C-10.69212891 4.01775391 -10.69212891 4.01775391 -12 4 C-12 3.67 -12 3.34 -12 3 C-10.95199219 2.92652344 -10.95199219 2.92652344 -9.8828125 2.8515625 C-8.97273438 2.77679688 -8.06265625 2.70203125 -7.125 2.625 C-6.22007813 2.55539063 -5.31515625 2.48578125 -4.3828125 2.4140625 C-1.82058097 2.20431868 -1.82058097 2.20431868 0 0 Z " fill="#4FD9B8" transform="translate(126,147)"/>
<path d="M0 0 C4.54805635 -0.17835515 7.8794254 0.00214565 12 2 C12 2.33 12 2.66 12 3 C10.37419034 2.88601335 8.74932843 2.75844341 7.125 2.625 C6.22007812 2.55539063 5.31515625 2.48578125 4.3828125 2.4140625 C2 2 2 2 0 0 Z " fill="#EDF5F8" transform="translate(427,200)"/>
<path d="M0 0 C0.99 0 1.98 0 3 0 C2.25 6.75 2.25 6.75 0 9 C0 6.03 0 3.06 0 0 Z " fill="#36D997" transform="translate(152,174)"/>
<path d="M0 0 C0.99 0 1.98 0 3 0 C3 1.65 3 3.3 3 5 C2.34 5 1.68 5 1 5 C0.67 5.99 0.34 6.98 0 8 C-0.66 8 -1.32 8 -2 8 C-0.79618552 5.50638429 0.45428722 3.31856917 2 1 C1.34 0.67 0.68 0.34 0 0 Z " fill="#3CE0A9" transform="translate(34,151)"/>
<path d="" fill="#000000" transform="translate(0,0)"/>
<path d="" fill="#000000" transform="translate(0,0)"/>
<path d="" fill="#000000" transform="translate(0,0)"/>
<path d="" fill="#000000" transform="translate(0,0)"/>
<path d="" fill="#000000" transform="translate(0,0)"/>
<path d="" fill="#000000" transform="translate(0,0)"/>
<path d="" fill="#000000" transform="translate(0,0)"/>
<path d="" fill="#000000" transform="translate(0,0)"/>
<path d="" fill="#000000" transform="translate(0,0)"/>
<path d="" fill="#000000" transform="translate(0,0)"/>
<path d="" fill="#000000" transform="translate(0,0)"/>
<path d="" fill="#000000" transform="translate(0,0)"/>
<path d="" fill="#000000" transform="translate(0,0)"/>
<path d="" fill="#000000" transform="translate(0,0)"/>
<path d="" fill="#000000" transform="translate(0,0)"/>
<path d="" fill="#000000" transform="translate(0,0)"/>
<path d="" fill="#000000" transform="translate(0,0)"/>
<path d="" fill="#000000" transform="translate(0,0)"/>
<path d="" fill="#000000" transform="translate(0,0)"/>
<path d="" fill="#000000" transform="translate(0,0)"/>
<path d="" fill="#000000" transform="translate(0,0)"/>
<path d="" fill="#000000" transform="translate(0,0)"/>
<path d="" fill="#000000" transform="translate(0,0)"/>
<path d="" fill="#000000" transform="translate(0,0)"/>
<path d="" fill="#000000" transform="translate(0,0)"/>
<path d="" fill="#000000" transform="translate(0,0)"/>
<path d="" fill="#000000" transform="translate(0,0)"/>
<path d="" fill="#000000" transform="translate(0,0)"/>
<path d="" fill="#000000" transform="translate(0,0)"/>
<path d="" fill="#000000" transform="translate(0,0)"/>
<path d="" fill="#000000" transform="translate(0,0)"/>
<path d="" fill="#000000" transform="translate(0,0)"/>
<path d="" fill="#000000" transform="translate(0,0)"/>
<path d="" fill="#000000" transform="translate(0,0)"/>
<path d="" fill="#000000" transform="translate(0,0)"/>
<path d="" fill="#000000" transform="translate(0,0)"/>
<path d="" fill="#000000" transform="translate(0,0)"/>
<path d="" fill="#000000" transform="translate(0,0)"/>
<path d="" fill="#000000" transform="translate(0,0)"/>
<path d="" fill="#000000" transform="translate(0,0)"/>
<path d="" fill="#000000" transform="translate(0,0)"/>
<path d="" fill="#000000" transform="translate(0,0)"/>
<path d="" fill="#000000" transform="translate(0,0)"/>
<path d="" fill="#000000" transform="translate(0,0)"/>
<path d="" fill="#000000" transform="translate(0,0)"/>
<path d="" fill="#000000" transform="translate(0,0)"/>
<path d="" fill="#000000" transform="translate(0,0)"/>
<path d="" fill="#000000" transform="translate(0,0)"/>
<path d="" fill="#000000" transform="translate(0,0)"/>
<path d="" fill="#000000" transform="translate(0,0)"/>
<path d="" fill="#000000" transform="translate(0,0)"/>
<path d="" fill="#000000" transform="translate(0,0)"/>
<path d="" fill="#000000" transform="translate(0,0)"/>
<path d="" fill="#000000" transform="translate(0,0)"/>
<path d="" fill="#000000" transform="translate(0,0)"/>
<path d="" fill="#000000" transform="translate(0,0)"/>
<path d="" fill="#000000" transform="translate(0,0)"/>
<path d="" fill="#000000" transform="translate(0,0)"/>
<path d="" fill="#000000" transform="translate(0,0)"/>
<path d="" fill="#000000" transform="translate(0,0)"/>
<path d="" fill="#000000" transform="translate(0,0)"/>
<path d="" fill="#000000" transform="translate(0,0)"/>
<path d="" fill="#000000" transform="translate(0,0)"/>
<path d="" fill="#000000" transform="translate(0,0)"/>
<path d="" fill="#000000" transform="translate(0,0)"/>
<path d="" fill="#000000" transform="translate(0,0)"/>
<path d="" fill="#000000" transform="translate(0,0)"/>
<path d="" fill="#000000" transform="translate(0,0)"/>
<path d="" fill="#000000" transform="translate(0,0)"/>
<path d="" fill="#000000" transform="translate(0,0)"/>
<path d="" fill="#000000" transform="translate(0,0)"/>
<path d="" fill="#000000" transform="translate(0,0)"/>
<path d="" fill="#000000" transform="translate(0,0)"/>
<path d="" fill="#000000" transform="translate(0,0)"/>
<path d="" fill="#000000" transform="translate(0,0)"/>
<path d="" fill="#000000" transform="translate(0,0)"/>
<path d="" fill="#000000" transform="translate(0,0)"/>
<path d="" fill="#000000" transform="translate(0,0)"/>
<path d="" fill="#000000" transform="translate(0,0)"/>
<path d="" fill="#000000" transform="translate(0,0)"/>
<path d="" fill="#000000" transform="translate(0,0)"/>
</svg>
